<?xml version="1.0" encoding="UTF-8"?>
<svg id="Layer_2" data-name="Layer 2" xmlns="http://www.w3.org/2000/svg" viewBox="0 0 110.99 123.95">
  <defs>
    <style>
      .cls-1 {
        fill: #609e9e;
      }

      .cls-1, .cls-2, .cls-3, .cls-4, .cls-5 {
        stroke-width: 0px;
      }

      .cls-2 {
        fill: #f2d7dc;
      }

      .cls-3 {
        fill: #ba7b80;
      }

      .cls-4 {
        fill: #c69197;
      }

      .cls-5 {
        fill: #cdbcc2;
      }
    </style>
  </defs>
  <g id="Layer_5" data-name="Layer 5">
    <g>
      <path class="cls-1" d="M48.24,43.94v52.59c0,3.87,3.13,7,7,7h35.03v13.42c0,3.87-3.13,7-7,7H24.04c-3.86,0-7-3.13-7-7V34.93c.14.01.29.01.43.01,9.65,0,17.47-7.82,17.47-17.47,0-2.6-.57-5.07-1.59-7.29h49.92c3.87,0,7,3.13,7,7v19.76h-35.03c-3.87,0-7,3.13-7,7Z"/>
      <path class="cls-2" d="M110.99,43.94v52.59c0,3.87-3.14,7-7,7h-13.72V36.94h13.72c3.86,0,7,3.13,7,7Z"/>
      <path class="cls-5" d="M90.27,36.94v66.59h-35.03c-3.87,0-7-3.13-7-7v-52.59c0-3.87,3.13-7,7-7h35.03Z"/>
      <path class="cls-4" d="M33.35,10.18h-9.31c-3.86,0-7,3.13-7,7v17.75c-4.65-.11-8.85-2.04-11.92-5.11C1.95,26.66,0,22.3,0,17.47S1.95,8.28,5.12,5.12C8.28,1.96,12.65,0,17.47,0s9.19,1.96,12.35,5.12c1.46,1.46,2.66,3.17,3.53,5.06Z"/>
      <path class="cls-3" d="M34.94,17.47c0,9.65-7.82,17.47-17.47,17.47-.14,0-.29,0-.43-.01v-17.75c0-3.87,3.14-7,7-7h9.31c1.02,2.22,1.59,4.69,1.59,7.29Z"/>
    </g>
  </g>
</svg>