<?xml version="1.0" encoding="UTF-8"?>
<svg id="Layer_2" data-name="Layer 2" xmlns="http://www.w3.org/2000/svg" viewBox="0 0 111.12 116.29">
  <defs>
    <style>
      .cls-1 {
        fill: #609e9e;
      }

      .cls-1, .cls-2, .cls-3, .cls-4, .cls-5 {
        stroke-width: 0px;
      }

      .cls-2 {
        fill: #b78489;
      }

      .cls-3 {
        fill: #da999f;
      }

      .cls-4 {
        fill: #f2d7dc;
      }

      .cls-5 {
        fill: #e2b5c4;
      }
    </style>
  </defs>
  <g id="Layer_5" data-name="Layer 5">
    <g>
      <rect class="cls-4" x="15.84" y="61.56" width="26.06" height="26.06" rx="7.47" ry="7.47" transform="translate(-45.72 103.47) rotate(-90)"/>
      <rect class="cls-5" x="41.83" y="0" width="21.22" height="21.22" rx="7" ry="7" transform="translate(41.83 63.05) rotate(-90)"/>
      <path class="cls-3" d="M80.05,39.85c-7.38.72-13.34,6.28-14.69,13.47h-28.55c-6.6,0-12-5.4-12-12v-1.21c0-6.6,5.4-12,12-12h31.25c6.51,0,11.86,5.26,11.99,11.74Z"/>
      <path class="cls-5" d="M80.06,40.11v1.21c0,6.6-5.4,12-12,12h-2.7c1.35-7.19,7.31-12.75,14.69-13.47.01.09.01.17.01.26Z"/>
      <path class="cls-4" d="M98.35,56.41c0,9.19-7.45,16.64-16.64,16.64s-16.64-7.45-16.64-16.64c0-1.06.1-2.09.29-3.09h2.7c6.6,0,12-5.4,12-12v-1.21c0-.09,0-.17-.01-.26.54-.06,1.1-.09,1.66-.09,9.19,0,16.64,7.46,16.64,16.65Z"/>
      <path class="cls-1" d="M111.12,83.4v19.2c0,3.15-2.56,5.71-5.71,5.71h-47.4c-.09,0-.18,0-.27-.01.01-.12.01-.25.01-.37v-5.95c0-3.6-2.27-6.66-5.45-7.84v-10.74c0-3.16,2.56-5.71,5.71-5.71h47.4c3.15,0,5.71,2.55,5.71,5.71Z"/>
      <path class="cls-3" d="M57.74,108.3c-.19,4.45-3.85,7.99-8.35,7.99H8.36c-4.62,0-8.36-3.74-8.36-8.36v-5.95c0-4.62,3.74-8.36,8.36-8.36h41.03c1.02,0,2,.18,2.91.52v8.46c0,3.06,2.41,5.56,5.44,5.7Z"/>
      <path class="cls-2" d="M57.75,101.98v5.95c0,.12,0,.25-.01.37-3.03-.14-5.44-2.64-5.44-5.7v-8.46c3.18,1.18,5.45,4.24,5.45,7.84Z"/>
    </g>
  </g>
</svg>