<?xml version="1.0" encoding="UTF-8"?>
<svg id="Layer_2" data-name="Layer 2" xmlns="http://www.w3.org/2000/svg" viewBox="0 0 117 122.86">
  <defs>
    <style>
      .cls-1 {
        fill: #609e9e;
      }

      .cls-1, .cls-2, .cls-3, .cls-4, .cls-5, .cls-6 {
        stroke-width: 0px;
      }

      .cls-2 {
        fill: #b78489;
      }

      .cls-3 {
        fill: #da999f;
      }

      .cls-4 {
        fill: #f2d7dc;
      }

      .cls-5 {
        fill: #e2b5c4;
      }

      .cls-6 {
        fill: #cdbcc2;
      }
    </style>
  </defs>
  <g id="Layer_5" data-name="Layer 5">
    <g>
      <path class="cls-3" d="M63.13,114.08v1.73c0,3.9-3.39,7.05-7.57,7.05H7.57c-4.18,0-7.57-3.15-7.57-7.05v-18.09c0-3.9,3.39-7.05,7.57-7.05h42.35v16.35c0,3.9,3.38,7.05,7.56,7.05h5.65Z"/>
      <path class="cls-2" d="M63.13,97.24v17.55h-5.65c-4.18,0-7.56-3.38-7.56-7.56v-17.55h5.64c4.18,0,7.57,3.38,7.57,7.56Z"/>
      <path class="cls-1" d="M117,83.28v23.95c0,4.18-3.38,7.56-7.56,7.56h-46.31v-17.55c0-4.18-3.39-7.56-7.57-7.56h-5.64v-6.4c0-4.18,3.38-7.56,7.56-7.56h51.96c4.18,0,7.56,3.38,7.56,7.56Z"/>
      <path class="cls-1" d="M81.22,32.19v6.57c-4.45.01-8.49,1.82-11.41,4.74-2.89,2.89-4.69,6.87-4.74,11.27h-30.92c-3.86,0-7-3.13-7-7v-15.58c0-3.87,3.14-7,7-7h40.07c3.87,0,7,3.13,7,7Z"/>
      <rect class="cls-4" x="18.59" y="60.22" width="24.41" height="24.41" rx="7" ry="7" transform="translate(-41.63 103.21) rotate(-90)"/>
      <rect class="cls-5" x="43.58" y="0" width="21.22" height="21.22" rx="7" ry="7" transform="translate(43.58 64.8) rotate(-90)"/>
      <path class="cls-6" d="M81.22,38.76v9.01c0,3.87-3.13,7-7,7h-9.15c.05-4.4,1.85-8.38,4.74-11.27,2.92-2.92,6.96-4.73,11.41-4.74Z"/>
      <path class="cls-4" d="M97.44,54.95c0,8.94-7.24,16.18-16.18,16.18-4.47,0-8.52-1.81-11.45-4.74-2.93-2.93-4.74-6.97-4.74-11.44v-.18h9.15c3.87,0,7-3.13,7-7v-9.01h.04c4.47,0,8.52,1.81,11.44,4.74,2.93,2.93,4.74,6.98,4.74,11.45Z"/>
    </g>
  </g>
</svg>