<?xml version="1.0" encoding="UTF-8"?>
<!DOCTYPE svg PUBLIC "-//W3C//DTD SVG 1.1//EN" "http://www.w3.org/Graphics/SVG/1.1/DTD/svg11.dtd">
<!-- Creator: CorelDRAW -->
<svg xmlns="http://www.w3.org/2000/svg" xml:space="preserve" width="947px" height="407px" version="1.1" style="shape-rendering:geometricPrecision; text-rendering:geometricPrecision; image-rendering:optimizeQuality; fill-rule:evenodd; clip-rule:evenodd"
viewBox="0 0 384.91 165.57"
 xmlns:xlink="http://www.w3.org/1999/xlink"
 xmlns:xodm="http://www.corel.com/coreldraw/odm/2003">
 <defs>
  <style type="text/css">
   <![CDATA[
    .fil4 {fill:#077777}
    .fil9 {fill:#60A8A8}
    .fil11 {fill:#988D9D}
    .fil14 {fill:#98A7B1}
    .fil15 {fill:#98ADB4}
    .fil3 {fill:#9CC9C9}
    .fil12 {fill:#C68CA4}
    .fil2 {fill:#C9A8B8}
    .fil13 {fill:#DAA4B9}
    .fil5 {fill:#DFCBD5}
    .fil7 {fill:#F2A2BB}
    .fil10 {fill:#F6BACC}
    .fil1 {fill:#F8C7D7}
    .fil8 {fill:#F9D1DD}
    .fil0 {fill:black;fill-rule:nonzero}
    .fil16 {fill:#077777;fill-rule:nonzero}
    .fil6 {fill:#935272;fill-rule:nonzero}
   ]]>
  </style>
 </defs>
 <g id="Layer_x0020_1">
  <metadata id="CorelCorpID_0Corel-Layer"/>
  <path class="fil0" d="M262.07 15.35l-0.44 2.66 14.68 0 0 6.61 -23.52 0 1.78 -12.15 -1.78 -12.15 23.36 0 0 6.61 -14.52 0 0.44 2.65 13.04 0 0 5.77 -13.04 0zm28.46 1.74l4.31 -11.1 8.75 0 -8.46 18.63 -9.39 0 -8.46 -18.63 9.07 0 4.18 11.1zm20.99 -0.05c1.05,2.17 3.81,2.59 5.97,2.59 2.71,0 5.44,-0.69 7.77,-2.08l0 4.67c-2.86,2.01 -6.57,2.98 -10.04,2.98 -5.99,0 -12.12,-3.26 -12.12,-9.98 0,-6.43 5.75,-9.82 11.7,-9.82 7.04,0 10.92,4.65 10.92,11.63l-14.2 0.01zm-0.21 -3.8l7.14 0c-0.54,-1.68 -1.75,-2.59 -3.55,-2.59 -1.77,0 -3.07,0.91 -3.59,2.59zm24.6 -3.74c1.65,-2.57 4.08,-4.1 7.17,-4.1 5.43,0 8.59,3.47 8.59,8.72l0 10.5 -8.23 0 0 -9.33c0,-2.09 -1.2,-3.24 -3.28,-3.24 -2.26,0 -3.53,1.41 -3.53,3.69l0 8.88 -8.22 0 0 -11.96 -1.3 -6.67 8.23 0 0.57 3.51zm16.95 2.48l0 -3.53 3.67 -1.85 3.59 -5.7 4.63 0 0 5.09 7.29 0 0 5.99 -7.29 0 0 3.82c0,2.61 0.94,3.24 3.47,3.24 1.42,0 2.79,-0.18 4.15,-0.61l0 5.96c-3.29,0.96 -8.37,1.26 -11.54,-0.18 -3.05,-1.39 -4.3,-4.09 -4.3,-7.34l0 -4.89 -3.67 0z"/>
  <path class="fil1" d="M22.23 37.61l41.99 -2.51c3.27,-0.2 6.11,2.32 6.3,5.59l4.05 67.56c0.19,3.27 -2.32,6.11 -5.59,6.3l-41.99 2.52c-3.27,0.19 -6.11,-2.32 -6.31,-5.59l-4.04 -67.56c-0.19,-3.28 2.32,-6.11 5.59,-6.31z"/>
  <path class="fil2" d="M25.8 106.05c5.83,0.91 9.81,6.37 8.9,12.2 -0.9,5.83 -6.36,9.81 -12.19,8.9 -5.83,-0.9 -9.82,-6.36 -8.91,-12.19 0.91,-5.83 6.37,-9.82 12.2,-8.91z"/>
  <path class="fil3" d="M17.2 23.74l18.19 2.84c3.75,0.58 6.34,4.13 5.75,7.88l-9.24 59.21c-0.58,3.75 -4.13,6.34 -7.87,5.75l-18.19 -2.83c-3.75,-0.59 -6.34,-4.13 -5.76,-7.88l9.24 -59.22c0.58,-3.75 4.13,-6.34 7.88,-5.75z"/>
  <path class="fil3" d="M154.93 142.37l3.22 -11.3c0.69,-2.45 3.26,-3.87 5.7,-3.18l60.8 17.32c2.44,0.7 3.87,3.27 3.17,5.71l-3.22 11.3c-0.7,2.44 -3.26,3.87 -5.71,3.18l-60.79 -17.33c-2.44,-0.69 -3.87,-3.26 -3.17,-5.7z"/>
  <path class="fil4" d="M154.93 142.37l1.97 -6.92c4.08,1.97 6.42,6.55 5.39,11.16 -0.19,0.86 -0.49,1.66 -0.87,2.41l-3.32 -0.95c-2.44,-0.69 -3.87,-3.26 -3.17,-5.7z"/>
  <path class="fil2" d="M154.73 134.7c5.38,1.2 8.76,6.53 7.56,11.91 -1.2,5.38 -6.54,8.77 -11.92,7.57 -5.38,-1.21 -8.77,-6.54 -7.56,-11.92 1.2,-5.38 6.54,-8.77 11.92,-7.56z"/>
  <path class="fil1" d="M147.61 43.98l-4.53 -17.83c-0.98,-3.85 1.37,-7.8 5.22,-8.78l56.05 -14.24c3.85,-0.98 7.8,1.37 8.78,5.22l4.53 17.83c0.98,3.86 -1.37,7.81 -5.22,8.79l-56.05 14.24c-3.85,0.98 -7.8,-1.37 -8.78,-5.23z"/>
  <path class="fil5" d="M119.06 14.69l1.51 -2.64c1.44,-2.49 4.65,-3.35 7.13,-1.92l10.55 6.07 7.64 -13.27c1.43,-2.49 4.64,-3.35 7.13,-1.92l2.64 1.52c2.49,1.43 3.35,4.64 1.92,7.13l-10.24 17.79 -1.52 2.64 0 0c-0.02,0.04 -0.04,0.08 -0.07,0.12l0 0c-0.02,0.04 -0.04,0.07 -0.07,0.11l0 0c-0.02,0.04 -0.05,0.08 -0.07,0.11l0 0c-0.03,0.04 -0.05,0.08 -0.08,0.11l0 0c-0.02,0.04 -0.05,0.07 -0.08,0.11l0 0c-0.02,0.03 -0.05,0.07 -0.08,0.1l0 0c-0.02,0.03 -0.05,0.07 -0.08,0.1l0 0c-0.03,0.03 -0.06,0.07 -0.09,0.1l0 0c-0.02,0.03 -0.05,0.06 -0.08,0.1l0 0c-0.03,0.03 -0.06,0.06 -0.09,0.09l0 0c-0.03,0.03 -0.06,0.06 -0.09,0.09l0 0c-0.03,0.03 -0.06,0.06 -0.1,0.09l0 0c-0.03,0.03 -0.06,0.06 -0.09,0.08l0 0c-0.03,0.03 -0.07,0.06 -0.1,0.09 -0.03,0.02 -0.06,0.05 -0.1,0.08l0 0c-0.03,0.02 -0.06,0.05 -0.1,0.08l0 0c-0.03,0.02 -0.07,0.05 -0.1,0.07l0 0c-0.03,0.03 -0.07,0.05 -0.1,0.07l0 0c-0.04,0.03 -0.07,0.05 -0.11,0.07l0 0c-0.03,0.03 -0.07,0.05 -0.11,0.07l0 0c-0.03,0.02 -0.07,0.04 -0.1,0.07 -0.04,0.02 -0.08,0.04 -0.11,0.06l0 0c-0.04,0.02 -0.08,0.04 -0.12,0.06 -0.03,0.02 -0.07,0.04 -0.11,0.05 -0.04,0.02 -0.07,0.04 -0.11,0.06 -0.04,0.01 -0.08,0.03 -0.12,0.05l0 0c-0.04,0.01 -0.07,0.03 -0.11,0.05l0 0c-0.04,0.01 -0.08,0.03 -0.12,0.04l0 0c-0.04,0.02 -0.08,0.03 -0.12,0.04l0 0c-0.04,0.02 -0.08,0.03 -0.12,0.04l0 0c-0.04,0.02 -0.08,0.03 -0.12,0.04l0 0c-0.04,0.01 -0.08,0.02 -0.12,0.04 -0.04,0.01 -0.08,0.02 -0.12,0.03l0 0c-0.04,0.01 -0.08,0.02 -0.12,0.02l0 0c-0.04,0.01 -0.08,0.02 -0.12,0.03l0 0c-0.05,0.01 -0.09,0.02 -0.13,0.02l0 0c-0.04,0.01 -0.08,0.02 -0.12,0.02l0 0c-0.04,0.01 -0.09,0.01 -0.13,0.02l0 0c-0.04,0 -0.08,0.01 -0.12,0.01 -0.04,0.01 -0.09,0.01 -0.13,0.01 -0.04,0.01 -0.08,0.01 -0.12,0.01 -0.05,0 -0.09,0 -0.13,0.01l0 0c-0.04,0 -0.08,0 -0.13,0 -0.04,0 -0.08,0 -0.12,0l0 0c-0.04,0 -0.09,-0.01 -0.13,-0.01l0 0c-0.04,0 -0.08,0 -0.12,-0.01l0 0c-0.05,0 -0.09,0 -0.13,-0.01l0 0c-0.04,0 -0.08,-0.01 -0.13,-0.01l0 0c-0.04,-0.01 -0.08,-0.01 -0.12,-0.02l0 0c-0.04,0 -0.09,-0.01 -0.13,-0.02 -0.04,0 -0.08,-0.01 -0.12,-0.02l0 0c-0.05,-0.01 -0.09,-0.02 -0.13,-0.03l0 0c-0.04,-0.01 -0.08,-0.02 -0.13,-0.03l0 0c-0.04,-0.01 -0.08,-0.02 -0.12,-0.03l0 0c-0.04,-0.01 -0.08,-0.02 -0.12,-0.03l0 0c-0.04,-0.02 -0.09,-0.03 -0.13,-0.04l0 0c-0.04,-0.02 -0.08,-0.03 -0.12,-0.05l0 0c-0.04,-0.01 -0.08,-0.03 -0.12,-0.04l0 0c-0.04,-0.02 -0.08,-0.03 -0.12,-0.05l0 0c-0.04,-0.02 -0.08,-0.03 -0.13,-0.05l0 0c-0.04,-0.02 -0.08,-0.04 -0.12,-0.06l0 0c-0.03,-0.02 -0.07,-0.04 -0.11,-0.06l0 0c-0.04,-0.02 -0.08,-0.04 -0.12,-0.06l0 0c-0.04,-0.02 -0.08,-0.04 -0.12,-0.06l0 0 -2.64 -1.52 -15.07 -8.68c-2.49,-1.43 -3.36,-4.64 -1.92,-7.13z"/>
  <path class="fil6" d="M237.91 95.35c-2.77,0 -4.85,-2.11 -4.85,-4.84 0,-2.77 2.11,-4.84 4.85,-4.84 2.78,0 4.84,2.09 4.84,4.84 0,2.78 -2.11,4.84 -4.84,4.84z"/>
  <path class="fil7" d="M376.05 0l8.8 0 -1.43 15.21 -5.95 0 -1.42 -15.21zm4.4 25.2c-1.35,0 -2.43,-0.38 -3.24,-1.14 -0.82,-0.76 -1.23,-1.76 -1.23,-2.99 0,-1.24 0.41,-2.23 1.23,-2.99 0.81,-0.77 1.89,-1.15 3.24,-1.15 1.34,0 2.42,0.38 3.24,1.15 0.82,0.76 1.22,1.75 1.22,2.99 0,1.23 -0.4,2.23 -1.22,2.99 -0.82,0.76 -1.9,1.14 -3.24,1.14z"/>
  <path class="fil8" d="M327.58 56.42l-2.57 1.27c-6.77,3.36 -9.57,11.64 -6.21,18.42l13.27 26.79c3.35,6.78 11.64,9.57 18.41,6.22l2.58 -1.28c6.77,-3.35 9.57,-11.64 6.21,-18.41l-13.27 -26.8c-3.36,-6.77 -11.64,-9.57 -18.42,-6.21z"/>
  <path class="fil3" d="M251.82 105.59l3.94 -13.73c2.06,-7.19 9.62,-11.38 16.81,-9.33l40.76 11.69c7.19,2.05 11.38,9.62 9.32,16.8l-3.93 13.74c-2.06,7.18 -9.62,11.38 -16.81,9.32l-40.76 -11.68c-7.19,-2.06 -11.38,-9.62 -9.33,-16.81z"/>
  <path class="fil3" d="M307.34 63.25l13.74 3.93c7.18,2.06 11.38,9.63 9.32,16.81l-11.68 40.77c-2.06,7.18 -9.62,11.38 -16.81,9.32l-13.73 -3.94c-7.19,-2.06 -11.38,-9.62 -9.33,-16.8l11.69 -40.77c2.05,-7.19 9.62,-11.38 16.8,-9.32z"/>
  <path class="fil8" d="M383.49 77.43l-1.27 -2.57c-3.36,-6.78 -11.64,-9.57 -18.42,-6.22l-26.79 13.28c-6.77,3.35 -9.57,11.64 -6.22,18.41l1.28 2.57c3.35,6.78 11.64,9.57 18.41,6.22l26.8 -13.28c6.77,-3.35 9.57,-11.64 6.21,-18.41z"/>
  <path class="fil9" d="M286.53 86.54l26.8 7.68c7.17,2.05 11.37,9.59 9.34,16.76l-3.95 13.78c-1.64,5.72 -6.78,9.55 -12.43,9.83 -0.11,0 -0.23,0.01 -0.34,0.01l0 0 -0.33 0 0 0c-0.11,0 -0.22,0 -0.34,0l0 0c-0.11,0 -0.22,-0.01 -0.33,-0.01l0 0c-0.11,-0.01 -0.23,-0.02 -0.34,-0.03l0 0c-0.11,0 -0.22,-0.01 -0.34,-0.03l0 0c-0.11,-0.01 -0.22,-0.02 -0.33,-0.03l0 0c-0.12,-0.02 -0.23,-0.03 -0.34,-0.05l0 0c-0.11,-0.02 -0.23,-0.04 -0.34,-0.06l0 0c-0.11,-0.02 -0.22,-0.04 -0.34,-0.06l0 0c-0.11,-0.03 -0.22,-0.05 -0.33,-0.08l-0.01 0 -0.33 -0.08 0 0c-0.12,-0.03 -0.23,-0.06 -0.34,-0.09l0 0 -13.73 -3.94c-7.19,-2.06 -11.38,-9.62 -9.33,-16.8l7.68 -26.8z"/>
  <path class="fil10" d="M330.79 100.32l1.28 2.58c0.05,0.11 0.11,0.21 0.16,0.32 0.06,0.1 0.11,0.2 0.17,0.31 0.06,0.1 0.11,0.2 0.17,0.3 0.06,0.1 0.12,0.2 0.19,0.3 0.06,0.09 0.12,0.19 0.18,0.29 0.07,0.09 0.13,0.19 0.2,0.28l0.2 0.28c0.07,0.09 0.14,0.18 0.21,0.27l0.21 0.27c0.07,0.09 0.15,0.17 0.22,0.26 0.07,0.08 0.15,0.17 0.22,0.25 0.08,0.09 0.16,0.17 0.23,0.25 0.08,0.08 0.16,0.16 0.24,0.24l0 0c0.08,0.08 0.16,0.16 0.24,0.23 0.08,0.08 0.17,0.16 0.25,0.23l0 0c0.08,0.08 0.17,0.15 0.25,0.22l0.26 0.22c0.08,0.07 0.17,0.14 0.26,0.21l0.26 0.2 0 0 0.27 0.19 0 0c0.09,0.06 0.19,0.13 0.28,0.19 0.09,0.06 0.18,0.12 0.28,0.18l0.28 0.17c0.09,0.06 0.19,0.12 0.28,0.17l0.29 0.16 0.3 0.15 0 0c0.1,0.05 0.2,0.1 0.3,0.15 0.09,0.05 0.19,0.09 0.3,0.14l0.3 0.13 0 0c0.1,0.04 0.2,0.08 0.3,0.12l0 0c0.11,0.04 0.21,0.08 0.31,0.12l0.31 0.11 0 0c0.11,0.03 0.21,0.07 0.32,0.1 0.1,0.03 0.21,0.06 0.32,0.09 0.1,0.03 0.21,0.06 0.31,0.09l0 0 0.33 0.08c0.1,0.03 0.21,0.05 0.32,0.07 0.11,0.02 0.21,0.05 0.32,0.07l0 0c0.11,0.02 0.22,0.04 0.33,0.05 0.11,0.02 0.22,0.04 0.33,0.05l0.32 0.04c0.11,0.01 0.22,0.03 0.33,0.03 0.11,0.01 0.22,0.02 0.34,0.03 0.11,0.01 0.22,0.01 0.33,0.02 0.11,0 0.22,0 0.33,0.01 0.11,0 0.22,0 0.33,0 0.11,0 0.23,-0.01 0.34,-0.01 0.11,0 0.22,-0.01 0.33,-0.02 0.11,0 0.22,-0.01 0.34,-0.02 0.11,-0.01 0.22,-0.02 0.33,-0.03 0.11,-0.01 0.22,-0.03 0.33,-0.04 0.11,-0.02 0.23,-0.03 0.34,-0.05 0.11,-0.02 0.22,-0.04 0.33,-0.06 0.11,-0.02 0.22,-0.04 0.33,-0.06 0.11,-0.03 0.22,-0.05 0.33,-0.08 0.11,-0.02 0.23,-0.05 0.34,-0.08 0.11,-0.03 0.22,-0.06 0.33,-0.09 0.11,-0.03 0.21,-0.07 0.32,-0.1 0.11,-0.03 0.22,-0.07 0.33,-0.11 0.11,-0.04 0.22,-0.08 0.33,-0.12l0.32 -0.12c0.11,-0.05 0.22,-0.09 0.32,-0.14 0.11,-0.04 0.22,-0.09 0.33,-0.14 0.1,-0.05 0.21,-0.1 0.31,-0.15l2.58 -1.28c6.77,-3.35 9.57,-11.64 6.21,-18.41l-7.37 -14.89 -14.89 7.38c-6.77,3.35 -9.57,11.63 -6.22,18.4z"/>
  <path class="fil11" d="M154.93 142.37l1.97 -6.92c4.08,1.97 6.42,6.55 5.39,11.16 -0.19,0.86 -0.49,1.66 -0.87,2.41l-3.32 -0.95c-2.44,-0.69 -3.87,-3.26 -3.17,-5.7z"/>
  <path class="fil12" d="M34.83 116.6l-7.84 0.47c-3.27,0.19 -6.11,-2.32 -6.31,-5.59l-0.29 -4.87c1.67,-0.63 3.52,-0.85 5.41,-0.56 5.27,0.82 9.04,5.37 9.03,10.55z"/>
  <path class="fil13" d="M144.47 31.63l-1.39 -5.48c-0.98,-3.85 1.37,-7.8 5.22,-8.78l5.67 -1.44 -6.63 11.52 -1.52 2.64c-0.02,0.04 -0.04,0.08 -0.07,0.12 -0.02,0.04 -0.04,0.07 -0.07,0.11 -0.02,0.04 -0.05,0.08 -0.07,0.11 -0.03,0.04 -0.05,0.08 -0.08,0.11l0 0c-0.02,0.04 -0.05,0.07 -0.08,0.11 -0.02,0.03 -0.05,0.07 -0.08,0.1 -0.02,0.03 -0.05,0.07 -0.08,0.1 -0.03,0.03 -0.06,0.07 -0.09,0.1 -0.02,0.03 -0.05,0.06 -0.08,0.1l0 0c-0.03,0.03 -0.06,0.06 -0.09,0.09 -0.03,0.03 -0.06,0.06 -0.09,0.09 -0.03,0.03 -0.06,0.06 -0.1,0.09 -0.03,0.03 -0.06,0.06 -0.09,0.08 -0.03,0.03 -0.07,0.06 -0.1,0.09 -0.03,0.02 -0.06,0.05 -0.1,0.08l-0.08 0.06z"/>
  <path class="fil14" d="M22.23 37.61l18.59 -1.11 -8.92 57.17c-0.58,3.75 -4.13,6.34 -7.87,5.75l-4.11 -0.64 -3.28 -54.86c-0.19,-3.28 2.32,-6.11 5.59,-6.31z"/>
  <path class="fil15" d="M317.9 66.27l3.18 0.91c7.18,2.06 11.38,9.63 9.32,16.81l-2.82 9.85 -8.78 -17.73c-1.57,-3.17 -1.8,-6.67 -0.9,-9.84z"/>
  <path class="fil0" d="M143.81 70.6l0 24.4 -8.39 0 0 -20.75 3.77 3.77 -17.82 0 3.77 -3.77 0 20.75 -8.39 0 0 -24.4 27.06 0zm7.82 5.7l21.53 0 0 18.7 -8.26 0 0 -16.4 3.77 3.78 -12.91 0 3.48 -3.29c0.13,1.26 0.23,2.35 0.29,3.27 0.07,0.92 0.1,1.76 0.1,2.52 0,3.73 -0.61,6.42 -1.82,8.07 -1.22,1.64 -3.19,2.47 -5.92,2.47 -0.82,0 -1.59,-0.08 -2.31,-0.24 -0.72,-0.17 -1.43,-0.44 -2.15,-0.83l0 -5.79c0.39,0.15 0.78,0.26 1.16,0.32 0.38,0.07 0.71,0.1 0.99,0.1 0.95,0 1.62,-0.4 2,-1.2 0.38,-0.81 0.57,-2.15 0.57,-4.04 0,-0.97 -0.04,-2.08 -0.13,-3.31 -0.09,-1.24 -0.22,-2.62 -0.39,-4.13zm42.55 18.7l-0.94 -6.61 0.94 -2.73 -0.94 -2.7 0.94 -6.66 8.59 0 -1.3 9.33 1.3 9.37 -8.59 0zm1.73 -9.34c-0.22,2 -0.76,3.74 -1.61,5.22 -0.86,1.49 -1.98,2.64 -3.35,3.47 -1.38,0.82 -2.96,1.23 -4.74,1.23 -1.82,0 -3.42,-0.41 -4.79,-1.23 -1.38,-0.83 -2.45,-1.99 -3.22,-3.48 -0.77,-1.5 -1.16,-3.24 -1.16,-5.21 0,-1.99 0.39,-3.74 1.16,-5.23 0.77,-1.5 1.84,-2.66 3.22,-3.48 1.37,-0.83 2.97,-1.24 4.79,-1.24 1.78,0 3.36,0.41 4.74,1.22 1.37,0.81 2.49,1.96 3.36,3.45 0.87,1.48 1.4,3.24 1.6,5.28zm-10.54 0c0,0.72 0.15,1.35 0.44,1.9 0.29,0.56 0.7,1 1.23,1.32 0.53,0.33 1.15,0.49 1.84,0.49 0.72,0 1.41,-0.16 2.08,-0.49 0.67,-0.32 1.27,-0.76 1.78,-1.32 0.5,-0.55 0.86,-1.18 1.05,-1.9 -0.19,-0.71 -0.55,-1.35 -1.05,-1.92 -0.51,-0.56 -1.11,-1 -1.78,-1.33 -0.67,-0.33 -1.36,-0.49 -2.08,-0.49 -0.69,0 -1.31,0.16 -1.84,0.49 -0.53,0.33 -0.94,0.77 -1.23,1.33 -0.29,0.57 -0.44,1.21 -0.44,1.92zm21.44 -9.36l8.26 0 0 18.7 -8.26 0 0 -18.7zm15.22 0l8.27 0 0 18.7 -8.27 0 0 -18.7zm-10.44 6.04l13.47 0 0 6.09 -13.47 0 0 -6.09z"/>
  <path class="fil16" d="M120.1 161.3c-2.82,0 -4.94,-2.16 -4.94,-4.94 0,-2.83 2.15,-4.94 4.94,-4.94 2.84,0 4.94,2.14 4.94,4.94 0,2.83 -2.14,4.94 -4.94,4.94z"/>
  <path class="fil0" d="M0 161.05l0 -24.39 8.33 0 0 19.81 -2.15 -0.49 11.71 -19.32 10.96 0 0 24.39 -8.33 0 0 -20.32 2.15 0.48 -12.03 19.84 -10.64 0zm61.55 -6.08l0 10.41 -7.09 0 0 -4.33 -14.77 0 0 4.33 -7.09 0 0 -10.41 6.15 0 1.27 0.13 13.49 0 1.17 -0.13 6.87 0zm-25.24 -12.62l21.85 0 0 17.43 -8.19 0 0 -15.31 3.77 3.77 -13.5 0 2.93 -3.09c0.43,0.87 0.69,1.66 0.76,2.39 0.08,0.73 0.12,1.38 0.12,1.97 0,2.88 -0.56,5.1 -1.68,6.66 -1.11,1.57 -2.7,2.35 -4.76,2.35l-3.35 -2.8c1.63,-1.11 2.44,-3.73 2.44,-7.87 0,-0.83 -0.03,-1.69 -0.1,-2.6 -0.06,-0.91 -0.16,-1.88 -0.29,-2.9zm40.11 19.29c-2.32,0 -4.39,-0.42 -6.23,-1.25 -1.83,-0.84 -3.28,-2.01 -4.34,-3.52 -1.06,-1.5 -1.59,-3.25 -1.59,-5.25 0,-1.97 0.51,-3.7 1.54,-5.17 1.03,-1.47 2.44,-2.62 4.21,-3.45 1.78,-0.82 3.78,-1.23 5.99,-1.23 2.32,0 4.29,0.47 5.92,1.43 1.62,0.95 2.87,2.3 3.74,4.05 0.87,1.74 1.3,3.81 1.3,6.19l-15.94 0 0 -3.8 11.13 0 -2.22 1.23c-0.1,-0.84 -0.32,-1.55 -0.65,-2.11 -0.32,-0.56 -0.75,-0.99 -1.28,-1.29 -0.53,-0.29 -1.17,-0.43 -1.9,-0.43 -0.83,0 -1.53,0.18 -2.1,0.55 -0.58,0.37 -1.01,0.87 -1.3,1.51 -0.29,0.64 -0.44,1.36 -0.44,2.16 0,1.04 0.23,1.92 0.7,2.62 0.46,0.71 1.17,1.24 2.13,1.61 0.95,0.37 2.16,0.55 3.61,0.55 1.41,0 2.78,-0.17 4.11,-0.53 1.34,-0.36 2.57,-0.88 3.69,-1.55l0 4.69c-1.38,0.97 -2.96,1.71 -4.73,2.22 -1.77,0.51 -3.55,0.77 -5.35,0.77zm30.46 -11.06l0 4.91 -8.62 0 -0.04 -0.26c-1.56,0 -2.92,-0.25 -4.09,-0.76 -1.17,-0.51 -2.09,-1.25 -2.75,-2.21 -0.66,-0.97 -0.99,-2.08 -0.99,-3.34 0,-1.32 0.33,-2.47 0.99,-3.45 0.66,-0.97 1.58,-1.74 2.75,-2.29 1.17,-0.55 2.53,-0.83 4.09,-0.83l14.67 0 0 18.7 -8.26 0 0 -16.75 2.15 3.22 -6.34 0c-0.55,0 -0.97,0.13 -1.27,0.39 -0.31,0.26 -0.46,0.63 -0.46,1.11 0,0.5 0.15,0.88 0.46,1.15 0.3,0.27 0.72,0.41 1.27,0.41l6.44 0zm-2.41 1.72l-5.5 8.75 -9.17 0 5.89 -8.75 8.78 0z"/>
 </g>
</svg>
