<?xml version="1.0" encoding="UTF-8"?>
<!DOCTYPE svg PUBLIC "-//W3C//DTD SVG 1.1//EN" "http://www.w3.org/Graphics/SVG/1.1/DTD/svg11.dtd">
<!-- Creator: CorelDRAW -->
<svg xmlns="http://www.w3.org/2000/svg" xml:space="preserve" width="947px" height="76px" version="1.1" style="shape-rendering:geometricPrecision; text-rendering:geometricPrecision; image-rendering:optimizeQuality; fill-rule:evenodd; clip-rule:evenodd"
viewBox="0 0 384.91 30.74"
 xmlns:xlink="http://www.w3.org/1999/xlink"
 xmlns:xodm="http://www.corel.com/coreldraw/odm/2003">
 <defs>
  <style type="text/css">
   <![CDATA[
    .fil0 {fill:black;fill-rule:nonzero}
    .fil2 {fill:#077777;fill-rule:nonzero}
    .fil1 {fill:#F2A2BB;fill-rule:nonzero}
   ]]>
  </style>
 </defs>
 <g id="Layer_x0020_1">
  <metadata id="CorelCorpID_0Corel-Layer"/>
  <g id="_1892363951936">
   <path class="fil0" d="M26.5 12.15l0 6.43 -21.83 0 0 -6.43 21.83 0zm-15.6 3.22l-1.84 11.37 -3.57 -3.96 22.39 0 0 7.29 -27.88 0 2.2 -14.7 -2.2 -14.7 27.68 0 0 7.29 -22.19 0 3.57 -3.96 1.84 11.37zm38.86 10.55l-3.81 0 10.9 -25.25 9.57 0 -13.49 29.4 -10.39 0 -13.49 -29.4 9.77 0 10.94 25.25zm44.85 -13.77l0 6.43 -21.84 0 0 -6.43 21.84 0zm-15.6 3.22l-1.85 11.37 -3.57 -3.96 22.39 0 0 7.29 -27.87 0 2.19 -14.7 -2.19 -14.7 27.68 0 0 7.29 -22.2 0 3.57 -3.96 1.85 11.37zm48.65 8.19l-2.62 0.55 0 -23.44 8.86 0 0 29.4 -11.45 0 -15.8 -23.44 2.59 -0.55 0 23.99 -8.83 0 0 -29.4 11.81 0 15.44 22.89zm20.43 -18.93l9.14 0 -0.04 25.44 -9.1 0 0 -25.44zm-10.9 -3.96l30.94 0 -0.04 8.11 -30.9 0 0 -8.11zm55.21 11.76l21.44 0 -0.03 7.64 -21.41 0 0 -7.64zm22.19 -11.76l-0.04 7.64 -21.72 0 4.27 -4.19 -0.04 25.95 -9.09 0 0 -29.4 26.62 0zm20.19 30.07c-3.53,0 -6.62,-0.64 -9.27,-1.92 -2.65,-1.28 -4.72,-3.07 -6.2,-5.37 -1.47,-2.3 -2.21,-5 -2.21,-8.08 0,-3.08 0.74,-5.78 2.21,-8.08 1.48,-2.3 3.55,-4.09 6.2,-5.37 2.65,-1.28 5.74,-1.92 9.27,-1.92 3.53,0 6.62,0.64 9.28,1.92 2.65,1.28 4.71,3.07 6.19,5.37 1.48,2.3 2.22,5 2.22,8.08 0,3.08 -0.74,5.78 -2.22,8.08 -1.48,2.3 -3.54,4.09 -6.19,5.37 -2.66,1.28 -5.75,1.92 -9.28,1.92zm0 -8.12c1.75,0 3.26,-0.29 4.53,-0.88 1.27,-0.59 2.24,-1.42 2.92,-2.51 0.68,-1.08 1.02,-2.37 1.02,-3.86 0,-1.49 -0.34,-2.78 -1.02,-3.86 -0.68,-1.09 -1.65,-1.92 -2.92,-2.51 -1.27,-0.59 -2.78,-0.88 -4.53,-0.88 -1.75,0 -3.26,0.29 -4.53,0.88 -1.26,0.59 -2.24,1.42 -2.92,2.51 -0.68,1.08 -1.02,2.37 -1.02,3.86 0,1.49 0.34,2.78 1.02,3.86 0.68,1.09 1.66,1.92 2.92,2.51 1.27,0.59 2.78,0.88 4.53,0.88zm27.88 -9.25l10.27 0c1.15,0 2.05,-0.26 2.69,-0.78 0.64,-0.53 0.96,-1.29 0.96,-2.28 0,-0.99 -0.32,-1.75 -0.96,-2.27 -0.64,-0.53 -1.54,-0.79 -2.69,-0.79l-11.56 0 4.11 -4.23 0 27.05 -9.13 0 0 -29.4 17.95 0c2.28,0 4.28,0.4 6,1.21 1.73,0.81 3.08,1.94 4.04,3.37 0.97,1.44 1.45,3.13 1.45,5.06 0,1.88 -0.48,3.55 -1.45,5 -0.96,1.45 -2.31,2.58 -4.04,3.37 -1.72,0.8 -3.72,1.2 -6,1.2l-11.64 0 0 -6.51zm3.92 2.94l10.16 0 10.11 13.76 -10.47 0 -9.8 -13.76zm86.22 -15.64l0 29.4 -8.7 0 0 -26.03 1.8 0.19 -10.63 25.84 -9.09 0 -10.67 -25.76 1.81 -0.23 0 25.99 -8.67 0 0 -29.4 14.08 0 9.68 24.58 -3.33 0 9.61 -24.58 14.11 0zm30.74 11.48l0 6.43 -21.84 0 0 -6.43 21.84 0zm-15.6 3.22l-1.85 11.37 -3.57 -3.96 22.39 0 0 7.29 -27.87 0 2.19 -14.7 -2.19 -14.7 27.68 0 0 7.29 -22.2 0 3.57 -3.96 1.85 11.37z"/>
   <path class="fil1" d="M175.2 30.72c-1.37,0 -2.62,-0.32 -3.76,-0.97 -1.14,-0.65 -2.03,-1.54 -2.68,-2.68 -0.64,-1.13 -0.97,-2.39 -0.97,-3.76 0,-1.41 0.33,-2.68 0.97,-3.79 0.65,-1.12 1.54,-2 2.68,-2.65 1.14,-0.65 2.39,-0.97 3.76,-0.97 1.42,0 2.68,0.32 3.8,0.97 1.12,0.65 2,1.53 2.64,2.65 0.65,1.11 0.97,2.38 0.97,3.79 0,1.37 -0.32,2.63 -0.97,3.76 -0.64,1.14 -1.52,2.03 -2.64,2.68 -1.12,0.65 -2.38,0.97 -3.8,0.97z"/>
   <path class="fil2" d="M297.07 30.72c-1.38,0 -2.63,-0.32 -3.77,-0.97 -1.14,-0.65 -2.03,-1.54 -2.68,-2.68 -0.64,-1.13 -0.97,-2.39 -0.97,-3.76 0,-1.41 0.33,-2.68 0.97,-3.79 0.65,-1.12 1.54,-2 2.68,-2.65 1.14,-0.65 2.39,-0.97 3.77,-0.97 1.41,0 2.67,0.32 3.79,0.97 1.12,0.65 2,1.53 2.65,2.65 0.64,1.11 0.97,2.38 0.97,3.79 0,1.37 -0.33,2.63 -0.97,3.76 -0.65,1.14 -1.53,2.03 -2.65,2.68 -1.12,0.65 -2.38,0.97 -3.79,0.97z"/>
  </g>
 </g>
</svg>
