<?xml version="1.0" encoding="UTF-8"?>
<!DOCTYPE svg PUBLIC "-//W3C//DTD SVG 1.1//EN" "http://www.w3.org/Graphics/SVG/1.1/DTD/svg11.dtd">
<!-- Creator: CorelDRAW -->
<svg xmlns="http://www.w3.org/2000/svg" xml:space="preserve" width="947px" height="407px" version="1.1" style="shape-rendering:geometricPrecision; text-rendering:geometricPrecision; image-rendering:optimizeQuality; fill-rule:evenodd; clip-rule:evenodd"
viewBox="0 0 2169.36 933.16"
 xmlns:xlink="http://www.w3.org/1999/xlink"
 xmlns:xodm="http://www.corel.com/coreldraw/odm/2003">
 <defs>
  <style type="text/css">
   <![CDATA[
    .fil4 {fill:#077777}
    .fil10 {fill:#60A8A8}
    .fil12 {fill:#988D9D}
    .fil15 {fill:#98A7B1}
    .fil16 {fill:#98ADB4}
    .fil3 {fill:#9CC9C9}
    .fil13 {fill:#C68CA4}
    .fil2 {fill:#C9A8B8}
    .fil14 {fill:#DAA4B9}
    .fil5 {fill:#DFCBD5}
    .fil8 {fill:#F2A2BB}
    .fil11 {fill:#F6BACC}
    .fil1 {fill:#F8C7D7}
    .fil9 {fill:#F9D1DD}
    .fil6 {fill:#077777;fill-rule:nonzero}
    .fil7 {fill:#935272;fill-rule:nonzero}
    .fil0 {fill:white;fill-rule:nonzero}
   ]]>
  </style>
 </defs>
 <g id="Layer_x0020_1">
  <metadata id="CorelCorpID_0Corel-Layer"/>
  <path class="fil0" d="M1477.01 86.51l-2.48 14.98 82.75 0 0 37.24 -132.56 0 10.05 -68.47 -10.05 -68.47 131.65 0 0 37.25 -81.84 0 2.47 14.97 73.53 0 0 32.5 -73.52 0zm160.42 9.84l24.29 -62.61 49.3 0 -47.65 104.99 -52.95 0 -47.66 -104.99 51.13 0 23.54 62.61zm118.3 -0.32c5.92,12.24 21.44,14.58 33.62,14.58 15.27,0 30.67,-3.84 43.82,-11.68l0 26.29c-16.12,11.33 -37.03,16.8 -56.6,16.8 -33.77,0 -68.29,-18.35 -68.29,-56.24 0,-36.26 32.37,-55.32 65.92,-55.32 39.66,0 61.52,26.17 61.52,65.55l-79.99 0.02zm-1.22 -21.39l40.27 0c-3.06,-9.48 -9.85,-14.6 -20.04,-14.6 -9.96,0 -17.28,5.12 -20.23,14.6zm138.68 -21.08c9.26,-14.48 23,-23.1 40.4,-23.1 30.62,0 48.39,19.55 48.39,49.11l0 59.16 -46.38 0 0 -52.58c0,-11.74 -6.76,-18.26 -18.44,-18.26 -12.78,0 -19.9,7.97 -19.9,20.81l0 50.03 -46.38 0 0 -67.37 -7.3 -37.62 46.37 0 3.24 19.82zm95.54 13.97l0 -19.91 20.64 -10.41 20.26 -32.13 26.11 0 0 28.66 41.08 0 0 33.79 -41.08 0 0 21.54c0,14.67 5.3,18.26 19.54,18.26 8,0 15.74,-1.03 23.37,-3.47l0 33.6c-18.52,5.44 -47.13,7.12 -65,-1.01 -17.22,-7.84 -24.28,-23.04 -24.28,-41.36l0 -27.56 -20.64 0z"/>
  <path class="fil0" d="M799.55 461.27l29.57 0c8.48,0 14.61,-4.15 14.61,-13.14 0,-9.11 -6.01,-13.15 -14.61,-13.15l-29.57 0 0 26.29zm0 36.7l0 37.25 -47.11 0 0 -136.94 79.79 0c31.42,0 58.97,14.56 58.97,49.85 0,34.58 -26.64,49.84 -58.97,49.84l-32.68 0zm103.52 -103.34l46.38 0 0 140.59 -46.38 0 0 -140.59zm153.86 122.55c-10.11,14.06 -24.81,21.33 -42.12,21.33 -33.01,0 -51.48,-24.7 -51.48,-55.69 0,-31.41 18.66,-55.87 51.48,-55.87 17.32,0 31.99,7.14 42.18,21.16l2.56 -17.87 48.2 0 -7.3 52.4 7.3 52.58 -48.2 0 -2.62 -18.04zm-46.86 -34.36c0,11.68 7.69,20.82 19.72,20.82 12.12,0 24.36,-9.07 27.56,-20.82 -3.21,-11.82 -15.32,-21 -27.56,-21 -12.14,0 -19.72,9.28 -19.72,21zm157.39 -33.14c4.87,-7.61 10.77,-13.3 17.7,-17.07 6.94,-3.77 14.43,-5.66 22.46,-5.66 30.22,0 48.39,19.16 48.39,49.11l0 59.16 -46.38 0 0 -52.58c0,-11.74 -6.76,-18.26 -18.44,-18.26 -4.14,0 -7.7,0.82 -10.68,2.46 -2.98,1.65 -5.26,4.02 -6.85,7.13 -1.58,3.1 -2.37,6.84 -2.37,11.23l0 50.02 -46.38 0 0 -67.37 -7.3 -37.61 46.38 0 3.47 19.44z"/>
  <path class="fil0" d="M0 792.94l47.11 0 0 136.93 -47.11 0 0 -136.93zm155.85 117.61c-10.05,14.82 -25.11,22.61 -43.01,22.61 -32.36,0 -51.49,-23.99 -51.49,-55.69 0,-31.07 18.32,-55.87 51.49,-55.87 17.62,0 32.46,7.39 42.63,21.79l7.21 -54.11 48.21 0 -11.69 84.36 7.49 56.23 -48.21 0 -2.63 -19.32zm-47.76 -33.08c0,11.59 7.58,20.82 19.72,20.82 12.11,0 24.36,-9.05 27.57,-20.82 -3.22,-11.83 -15.34,-21 -27.57,-21 -12.02,0 -19.72,9.16 -19.72,21zm154.98 9.68c5.94,12.27 21.42,14.61 33.63,14.61 15.27,0 30.67,-3.85 43.82,-11.69l0 26.29c-16.12,11.34 -37.02,16.8 -56.6,16.8 -33.77,0 -68.29,-18.34 -68.29,-56.24 0,-36.72 32.88,-55.32 65.92,-55.32 40.69,0 61.53,27.32 61.53,65.55l-80.01 0zm-1.2 -21.36l40.27 0c-3.11,-9.65 -10.04,-14.61 -20.05,-14.61 -9.97,0 -17.27,5.12 -20.22,14.61zm184.96 -22.97l2.51 -17.93 48.2 0 -7.3 52.4 7.3 52.58 -48.2 0 -2.57 -18.09c-10.11,14.09 -24.82,21.38 -42.16,21.38 -32.36,0 -51.49,-23.99 -51.49,-55.69 0,-31.07 18.32,-55.87 51.49,-55.87 17.35,0 32.04,7.16 42.22,21.22zm-46.97 34.65c0,11.79 7.8,20.82 19.72,20.82 12.12,0 24.36,-9.05 27.57,-20.82 -3.22,-11.8 -15.32,-21 -27.57,-21 -12.24,0 -19.72,9.38 -19.72,21z"/>
  <path class="fil1" d="M125.3 211.98l236.65 -14.16c18.44,-1.1 34.42,13.08 35.53,31.51l22.78 380.77c1.1,18.44 -13.08,34.42 -31.51,35.52l-236.66 14.16c-18.43,1.11 -34.42,-13.07 -35.52,-31.51l-22.78 -380.77c-1.11,-18.43 13.08,-34.42 31.51,-35.52z"/>
  <path class="fil2" d="M145.4 597.71c32.84,5.12 55.32,35.9 50.2,68.74 -5.13,32.84 -35.9,55.31 -68.74,50.19 -32.85,-5.12 -55.32,-35.9 -50.2,-68.74 5.13,-32.84 35.9,-55.31 68.74,-50.19z"/>
  <path class="fil3" d="M96.92 133.79l102.53 16c21.12,3.29 35.71,23.27 32.42,44.4l-52.06 333.74c-3.29,21.13 -23.27,35.71 -44.4,32.42l-102.52 -15.99c-21.13,-3.3 -35.72,-23.28 -32.42,-44.41l52.05 -333.73c3.29,-21.13 23.27,-35.72 44.4,-32.43z"/>
  <path class="fil3" d="M873.16 802.39l18.15 -63.71c3.92,-13.76 18.39,-21.81 32.16,-17.89l342.62 97.63c13.77,3.92 21.82,18.39 17.9,32.15l-18.15 63.7c-3.92,13.76 -18.39,21.82 -32.16,17.89l-342.62 -97.62c-13.77,-3.92 -21.82,-18.39 -17.9,-32.15z"/>
  <path class="fil4" d="M873.16 802.39l11.11 -39c23,11.11 36.2,36.93 30.39,62.92 -1.08,4.83 -2.75,9.36 -4.91,13.55l-18.69 -5.32c-13.77,-3.92 -21.82,-18.39 -17.9,-32.15z"/>
  <path class="fil2" d="M872.03 759.14c30.32,6.78 49.41,36.85 42.63,67.17 -6.78,30.33 -36.86,49.41 -67.18,42.63 -30.32,-6.78 -49.41,-36.85 -42.63,-67.18 6.78,-30.32 36.86,-49.4 67.18,-42.62z"/>
  <path class="fil1" d="M831.91 247.89l-25.53 -100.48c-5.52,-21.71 7.73,-43.99 29.44,-49.5l315.89 -80.27c21.71,-5.51 43.99,7.74 49.5,29.45l25.53 100.48c5.52,21.71 -7.73,43.99 -29.44,49.5l-315.89 80.26c-21.71,5.52 -43.98,-7.73 -49.5,-29.44z"/>
  <path class="fil5" d="M670.99 82.81l8.56 -14.88c8.08,-14.03 26.16,-18.91 40.19,-10.83l59.44 34.2 43.03 -74.78c8.08,-14.03 26.16,-18.9 40.19,-10.83l14.88 8.57c14.03,8.07 18.9,26.15 10.83,40.18l-57.71 100.29 -8.56 14.88 0 0c-0.13,0.22 -0.25,0.43 -0.39,0.65l0 0c-0.13,0.21 -0.26,0.43 -0.4,0.64l0 0c-0.13,0.21 -0.27,0.42 -0.41,0.62l0 0c-0.14,0.21 -0.28,0.41 -0.43,0.61l0 0c-0.14,0.2 -0.29,0.4 -0.44,0.6l0 0c-0.15,0.19 -0.3,0.39 -0.45,0.58l0 0c-0.16,0.19 -0.31,0.38 -0.47,0.57l0 0c-0.16,0.19 -0.32,0.37 -0.48,0.55l0 0c-0.16,0.19 -0.32,0.37 -0.49,0.54l0 0c-0.17,0.18 -0.33,0.36 -0.51,0.53l0 0c-0.16,0.17 -0.34,0.34 -0.51,0.51l0 0c-0.17,0.17 -0.35,0.34 -0.52,0.5l0 0c-0.18,0.16 -0.36,0.32 -0.54,0.48l0 0c-0.18,0.16 -0.36,0.32 -0.55,0.47 -0.18,0.15 -0.37,0.31 -0.56,0.45l0 0c-0.18,0.15 -0.37,0.3 -0.56,0.45l0 0c-0.19,0.14 -0.38,0.28 -0.58,0.42l0 0c-0.19,0.14 -0.39,0.27 -0.58,0.41l0 0c-0.2,0.13 -0.4,0.26 -0.6,0.39l0 0c-0.2,0.13 -0.4,0.26 -0.6,0.38l0 0c-0.2,0.13 -0.41,0.25 -0.61,0.37 -0.21,0.12 -0.41,0.23 -0.62,0.35l0 0c-0.21,0.11 -0.42,0.22 -0.63,0.33 -0.21,0.11 -0.42,0.22 -0.63,0.32 -0.22,0.1 -0.43,0.2 -0.64,0.3 -0.22,0.1 -0.43,0.2 -0.65,0.29l0 0c-0.22,0.09 -0.44,0.18 -0.66,0.27l0 0c-0.22,0.09 -0.44,0.17 -0.66,0.26l0 0c-0.22,0.08 -0.44,0.16 -0.66,0.24l0 0c-0.22,0.07 -0.45,0.15 -0.67,0.22l0 0c-0.23,0.07 -0.45,0.14 -0.68,0.21l0 0c-0.22,0.07 -0.45,0.13 -0.68,0.19 -0.23,0.06 -0.46,0.12 -0.68,0.18l-0.01 0c-0.22,0.05 -0.45,0.11 -0.68,0.16l0 0c-0.23,0.05 -0.47,0.1 -0.7,0.14l0 0c-0.23,0.05 -0.46,0.09 -0.69,0.13l0 0c-0.24,0.04 -0.47,0.07 -0.7,0.11l0 0c-0.24,0.03 -0.47,0.06 -0.7,0.09l0 0c-0.24,0.03 -0.47,0.06 -0.71,0.08 -0.23,0.02 -0.47,0.04 -0.7,0.06 -0.24,0.02 -0.48,0.03 -0.71,0.04 -0.24,0.01 -0.48,0.02 -0.71,0.03l0 0c-0.24,0 -0.48,0.01 -0.71,0.01 -0.24,0 -0.48,0 -0.72,-0.01l0 0c-0.23,-0.01 -0.47,-0.01 -0.71,-0.03l0 0c-0.24,-0.01 -0.47,-0.02 -0.71,-0.04l0 0c-0.24,-0.02 -0.47,-0.04 -0.71,-0.06l0 0c-0.24,-0.02 -0.48,-0.05 -0.71,-0.08l0 0c-0.24,-0.02 -0.48,-0.05 -0.72,-0.09l0 0c-0.23,-0.04 -0.47,-0.07 -0.7,-0.11 -0.24,-0.04 -0.48,-0.09 -0.71,-0.13l0 0c-0.24,-0.05 -0.47,-0.1 -0.71,-0.15l0 0c-0.23,-0.05 -0.47,-0.11 -0.7,-0.17l0 0c-0.24,-0.06 -0.47,-0.12 -0.71,-0.18l0 0c-0.23,-0.07 -0.46,-0.13 -0.7,-0.2l0 0c-0.23,-0.07 -0.46,-0.15 -0.69,-0.22l0 0c-0.23,-0.08 -0.47,-0.16 -0.7,-0.24l0 0c-0.23,-0.08 -0.46,-0.17 -0.69,-0.26l0 0c-0.23,-0.09 -0.45,-0.18 -0.68,-0.27l0 0c-0.23,-0.1 -0.45,-0.2 -0.68,-0.3l0 0c-0.23,-0.1 -0.45,-0.2 -0.68,-0.31l0 0c-0.22,-0.11 -0.45,-0.22 -0.67,-0.33l0 0c-0.22,-0.12 -0.44,-0.23 -0.67,-0.35l0 0c-0.22,-0.12 -0.44,-0.24 -0.66,-0.37l0 0 -14.88 -8.56 -84.95 -48.89c-14.03,-8.07 -18.9,-26.15 -10.83,-40.18z"/>
  <path class="fil6" d="M536.35 932.06c-15.9,0 -27.85,-12.16 -27.85,-27.84 0,-15.95 12.12,-27.84 27.85,-27.84 16.01,0 27.84,12.05 27.84,27.84 0,15.95 -12.1,27.84 -27.84,27.84z"/>
  <path class="fil7" d="M1295.72 537.41c-15.58,0 -27.29,-11.92 -27.29,-27.29 0,-15.64 11.87,-27.3 27.29,-27.3 15.71,0 27.3,11.81 27.3,27.3 0,15.63 -11.86,27.29 -27.3,27.29z"/>
  <path class="fil8" d="M2119.4 0l49.58 0 -8.01 85.75 -33.55 0 -8.02 -85.75zm24.79 142.05c-7.58,0 -13.67,-2.15 -18.27,-6.43 -4.59,-4.29 -6.89,-9.91 -6.89,-16.88 0,-6.95 2.3,-12.58 6.89,-16.87 4.6,-4.28 10.69,-6.43 18.27,-6.43 7.58,0 13.67,2.15 18.27,6.43 4.6,4.29 6.9,9.92 6.9,16.87 0,6.97 -2.3,12.59 -6.9,16.88 -4.6,4.28 -10.69,6.43 -18.27,6.43z"/>
  <path class="fil9" d="M1846.25 317.97l-14.5 7.19c-38.17,18.91 -53.93,65.61 -35.02,103.78l74.8 151.02c18.91,38.17 65.61,53.93 103.78,35.02l14.51 -7.19c38.17,-18.91 53.93,-65.6 35.02,-103.77l-74.81 -151.02c-18.91,-38.17 -65.6,-53.93 -103.78,-35.03z"/>
  <path class="fil3" d="M1419.27 595.1l22.19 -77.41c11.6,-40.5 54.23,-64.13 94.73,-52.53l229.75 65.84c40.5,11.6 64.13,54.23 52.53,94.73l-22.18 77.4c-11.61,40.5 -54.23,64.14 -94.73,52.54l-229.75 -65.84c-40.5,-11.6 -64.14,-54.23 -52.54,-94.73z"/>
  <path class="fil3" d="M1732.18 356.47l77.41 22.18c40.5,11.6 64.14,54.23 52.53,94.73l-65.84 229.75c-11.6,40.5 -54.22,64.14 -94.72,52.53l-77.41 -22.18c-40.5,-11.6 -64.14,-54.23 -52.53,-94.73l65.83 -229.75c11.6,-40.5 54.23,-64.14 94.73,-52.53z"/>
  <path class="fil9" d="M2161.35 436.39l-7.18 -14.5c-18.91,-38.17 -65.61,-53.93 -103.78,-35.02l-151.02 74.81c-38.17,18.9 -53.93,65.6 -35.02,103.77l7.18 14.51c18.91,38.17 65.61,53.93 103.78,35.02l151.02 -74.81c38.17,-18.91 53.93,-65.61 35.02,-103.78z"/>
  <path class="fil10" d="M1614.89 487.72l151.05 43.28c40.41,11.58 64.03,54.04 52.6,94.47l-22.26 77.66c-9.24,32.27 -38.19,53.84 -70.06,55.4 -0.63,0.03 -1.25,0.05 -1.87,0.07l-0.01 0 -1.88 0.02 0 0c-0.63,0 -1.26,-0.01 -1.89,-0.02l0 -0.01c-0.63,-0.01 -1.26,-0.03 -1.89,-0.07l0 0c-0.63,-0.03 -1.27,-0.07 -1.9,-0.12l0 0c-0.64,-0.05 -1.27,-0.1 -1.9,-0.17l0 0c-0.63,-0.06 -1.27,-0.13 -1.9,-0.22l-0.01 0c-0.63,-0.08 -1.26,-0.16 -1.9,-0.26l0 0c-0.63,-0.1 -1.27,-0.2 -1.9,-0.31l0 -0.01c-0.64,-0.11 -1.27,-0.23 -1.91,-0.36l0 0c-0.63,-0.13 -1.26,-0.27 -1.9,-0.42l0 0 -1.9 -0.47 0 0c-0.64,-0.16 -1.27,-0.33 -1.9,-0.51l0 -0.01 -77.41 -22.18c-40.5,-11.6 -64.14,-54.23 -52.53,-94.73l43.27 -151.03z"/>
  <path class="fil11" d="M1864.32 565.38l7.21 14.58c0.3,0.59 0.6,1.18 0.91,1.77 0.31,0.59 0.63,1.16 0.95,1.74 0.32,0.57 0.65,1.14 0.98,1.71 0.34,0.56 0.68,1.12 1.03,1.67 0.34,0.55 0.7,1.1 1.06,1.64 0.36,0.54 0.72,1.07 1.1,1.6l1.13 1.57c0.38,0.52 0.77,1.03 1.17,1.54l1.2 1.5c0.41,0.49 0.82,0.98 1.24,1.46 0.42,0.48 0.84,0.96 1.27,1.43 0.42,0.47 0.86,0.93 1.29,1.39 0.44,0.46 0.89,0.91 1.33,1.36l0 0c0.45,0.45 0.9,0.89 1.36,1.32 0.46,0.43 0.92,0.86 1.39,1.28l0 0.01c0.47,0.42 0.94,0.83 1.42,1.24l1.45 1.21c0.48,0.4 0.97,0.79 1.47,1.17l1.49 1.13 0 0.01 1.53 1.09 0 0c0.5,0.36 1.02,0.72 1.54,1.06 0.52,0.35 1.04,0.69 1.57,1.02l1.59 0.98c0.54,0.32 1.08,0.63 1.62,0.94l1.63 0.9 1.65 0.86 0 0c0.56,0.28 1.12,0.56 1.68,0.82 0.56,0.27 1.12,0.52 1.69,0.78l1.71 0.74 0 0c0.57,0.24 1.15,0.47 1.72,0.7l0 0c0.58,0.23 1.16,0.44 1.74,0.66l1.76 0.61 0 0c0.59,0.2 1.18,0.39 1.77,0.58 0.59,0.18 1.19,0.36 1.78,0.53 0.6,0.17 1.2,0.33 1.8,0.49l0 0 1.81 0.45c0.6,0.14 1.21,0.27 1.82,0.4 0.6,0.13 1.22,0.25 1.83,0.36l0 0c0.61,0.11 1.22,0.22 1.83,0.32 0.62,0.1 1.23,0.19 1.85,0.27l1.85 0.23c0.62,0.07 1.24,0.13 1.86,0.19 0.62,0.05 1.24,0.1 1.87,0.14 0.62,0.04 1.24,0.07 1.87,0.09 0.62,0.03 1.25,0.04 1.87,0.05 0.63,0.01 1.25,0.01 1.88,0.01 0.63,-0.01 1.25,-0.02 1.88,-0.04 0.63,-0.02 1.25,-0.05 1.88,-0.09 0.63,-0.03 1.26,-0.08 1.89,-0.13 0.62,-0.06 1.25,-0.11 1.88,-0.18 0.63,-0.07 1.25,-0.14 1.88,-0.23 0.63,-0.08 1.25,-0.17 1.88,-0.27 0.63,-0.1 1.25,-0.21 1.88,-0.32 0.63,-0.12 1.25,-0.24 1.87,-0.37 0.63,-0.13 1.25,-0.27 1.87,-0.42 0.63,-0.14 1.25,-0.3 1.87,-0.46 0.62,-0.16 1.24,-0.33 1.86,-0.51 0.62,-0.18 1.23,-0.37 1.85,-0.57 0.62,-0.19 1.23,-0.4 1.85,-0.61 0.61,-0.21 1.22,-0.43 1.83,-0.66l1.83 -0.71c0.61,-0.24 1.22,-0.5 1.82,-0.76 0.6,-0.26 1.21,-0.53 1.81,-0.81 0.6,-0.28 1.2,-0.57 1.79,-0.86l14.51 -7.19c38.17,-18.91 53.93,-65.6 35.02,-103.77l-41.56 -83.91 -83.91 41.57c-38.15,18.89 -53.91,65.55 -35.05,103.7z"/>
  <path class="fil12" d="M873.16 802.39l11.11 -39c23,11.11 36.2,36.93 30.39,62.92 -1.08,4.83 -2.75,9.36 -4.91,13.55l-18.69 -5.32c-13.77,-3.92 -21.82,-18.39 -17.9,-32.15z"/>
  <path class="fil13" d="M196.32 657.14l-44.23 2.64c-18.43,1.11 -34.42,-13.07 -35.52,-31.51l-1.64 -27.43c9.4,-3.55 19.83,-4.79 30.47,-3.13 29.72,4.63 50.94,30.27 50.92,59.43z"/>
  <path class="fil14" d="M814.22 178.28l-7.84 -30.87c-5.52,-21.71 7.73,-43.99 29.44,-49.5l31.95 -8.12 -37.37 64.94 -8.56 14.88c-0.13,0.22 -0.25,0.43 -0.39,0.65 -0.13,0.21 -0.26,0.43 -0.4,0.64 -0.13,0.21 -0.27,0.42 -0.41,0.62 -0.14,0.21 -0.28,0.41 -0.43,0.61l0 0c-0.14,0.2 -0.29,0.4 -0.44,0.6 -0.15,0.19 -0.3,0.39 -0.45,0.58 -0.16,0.19 -0.31,0.38 -0.47,0.57 -0.16,0.19 -0.32,0.37 -0.48,0.55 -0.16,0.19 -0.32,0.37 -0.49,0.54l0 0c-0.17,0.18 -0.33,0.36 -0.51,0.53 -0.16,0.17 -0.34,0.34 -0.51,0.51 -0.17,0.17 -0.35,0.34 -0.52,0.5 -0.18,0.16 -0.36,0.32 -0.54,0.48 -0.18,0.16 -0.36,0.32 -0.55,0.47 -0.18,0.15 -0.37,0.31 -0.56,0.45l-0.47 0.37z"/>
  <path class="fil15" d="M125.3 211.98l104.77 -6.27 -50.26 322.22c-3.29,21.13 -23.27,35.71 -44.4,32.42l-23.12 -3.61 -18.5 -309.24c-1.11,-18.43 13.08,-34.42 31.51,-35.52z"/>
  <path class="fil16" d="M1791.69 373.52l17.9 5.13c40.5,11.61 64.14,54.23 52.53,94.73l-15.9 55.48 -49.49 -99.92c-8.84,-17.85 -10.1,-37.56 -5.04,-55.42z"/>
 </g>
</svg>
