<?xml version="1.0" encoding="UTF-8"?>
<!DOCTYPE svg PUBLIC "-//W3C//DTD SVG 1.1//EN" "http://www.w3.org/Graphics/SVG/1.1/DTD/svg11.dtd">
<!-- Creator: CorelDRAW -->
<svg xmlns="http://www.w3.org/2000/svg" xml:space="preserve" width="947px" height="76px" version="1.1" style="shape-rendering:geometricPrecision; text-rendering:geometricPrecision; image-rendering:optimizeQuality; fill-rule:evenodd; clip-rule:evenodd"
viewBox="0 0 2169.35 173.25"
 xmlns:xlink="http://www.w3.org/1999/xlink"
 xmlns:xodm="http://www.corel.com/coreldraw/odm/2003">
 <defs>
  <style type="text/css">
   <![CDATA[
    .fil2 {fill:#077777;fill-rule:nonzero}
    .fil1 {fill:#F2A2BB;fill-rule:nonzero}
    .fil0 {fill:white;fill-rule:nonzero}
   ]]>
  </style>
 </defs>
 <g id="Layer_x0020_1">
  <metadata id="CorelCorpID_0Corel-Layer"/>
  <g id="_1892360339152">
   <path class="fil0" d="M149.38 68.5l0 36.24 -123.08 0 0 -36.24 123.08 0zm-87.95 18.12l-10.38 64.09 -20.11 -22.32 126.18 0 0 41.1 -157.12 0 12.37 -82.87 -12.37 -82.86 156.01 0 0 41.1 -125.07 0 20.11 -22.32 10.38 64.08zm218.99 59.45l-21.43 0 61.43 -142.31 53.92 0 -76.02 165.73 -58.56 0 -76.02 -165.73 55.03 0 61.65 142.31zm252.8 -77.57l0 36.24 -123.08 0 0 -36.24 123.08 0zm-87.95 18.12l-10.38 64.09 -20.11 -22.32 126.18 0 0 41.1 -157.12 0 12.38 -82.87 -12.38 -82.86 156.01 0 0 41.1 -125.07 0 20.11 -22.32 10.38 64.08zm274.24 46.19l-14.81 3.09 0 -132.14 49.94 0 0 165.73 -64.52 0 -89.06 -132.15 14.59 -3.09 0 135.24 -49.72 0 0 -165.73 66.51 0 87.07 129.05zm115.13 -106.74l51.49 0 -0.22 143.42 -51.27 0 0 -143.42zm-61.43 -22.31l174.35 0 -0.22 45.74 -174.13 0 0 -45.74zm311.14 66.29l120.87 0 -0.22 43.09 -120.65 0 0 -43.09zm125.07 -66.29l-0.22 43.09 -122.42 0 24.08 -23.65 -0.22 146.29 -51.26 0 0 -165.73 150.04 0zm113.8 169.49c-19.88,0 -37.31,-3.61 -52.26,-10.83 -14.95,-7.22 -26.59,-17.31 -34.91,-30.28 -8.32,-12.96 -12.49,-28.13 -12.49,-45.52 0,-17.38 4.17,-32.56 12.49,-45.52 8.32,-12.96 19.96,-23.05 34.91,-30.27 14.95,-7.22 32.38,-10.83 52.26,-10.83 19.89,0 37.31,3.61 52.27,10.83 14.95,7.22 26.59,17.31 34.91,30.27 8.32,12.96 12.49,28.14 12.49,45.52 0,17.39 -4.17,32.56 -12.49,45.52 -8.32,12.97 -19.96,23.06 -34.91,30.28 -14.96,7.22 -32.38,10.83 -52.27,10.83zm0 -45.75c9.88,0 18.38,-1.65 25.53,-4.97 7.14,-3.31 12.63,-8.03 16.46,-14.14 3.83,-6.11 5.75,-13.37 5.75,-21.77 0,-8.39 -1.92,-15.65 -5.75,-21.76 -3.83,-6.12 -9.32,-10.83 -16.46,-14.15 -7.15,-3.31 -15.65,-4.97 -25.53,-4.97 -9.87,0 -18.37,1.66 -25.52,4.97 -7.14,3.32 -12.63,8.03 -16.46,14.15 -3.83,6.11 -5.75,13.37 -5.75,21.76 0,8.4 1.92,15.66 5.75,21.77 3.83,6.11 9.32,10.83 16.46,14.14 7.15,3.32 15.65,4.97 25.52,4.97zm157.12 -52.15l57.9 0c6.48,0 11.53,-1.47 15.13,-4.42 3.61,-2.94 5.42,-7.22 5.42,-12.81 0,-5.6 -1.81,-9.87 -5.42,-12.82 -3.6,-2.95 -8.65,-4.42 -15.13,-4.42l-65.19 0 23.2 -23.86 0 152.47 -51.49 0 0 -165.73 101.21 0c12.82,0 24.09,2.28 33.81,6.85 9.72,4.56 17.31,10.9 22.76,19 5.45,8.1 8.18,17.61 8.18,28.51 0,10.6 -2.73,19.99 -8.18,28.17 -5.45,8.18 -13.04,14.51 -22.76,19.01 -9.72,4.49 -20.99,6.73 -33.81,6.73l-65.63 0 0 -36.68zm22.1 16.58l57.23 0 57.01 77.56 -59 0 -55.24 -77.56zm485.93 -88.17l0 165.73 -49.06 0 0 -146.73 10.17 1.1 -59.89 145.63 -51.26 0 -60.11 -145.18 10.17 -1.33 0 146.51 -48.84 0 0 -165.73 79.33 0 54.58 138.55 -18.78 0 54.14 -138.55 79.55 0zm173.25 64.74l0 36.24 -123.09 0 0 -36.24 123.09 0zm-87.95 18.12l-10.39 64.09 -20.11 -22.32 126.18 0 0 41.1 -157.11 0 12.37 -82.87 -12.37 -82.86 156.01 0 0 41.1 -125.08 0 20.11 -22.32 10.39 64.08z"/>
   <path class="fil1" d="M987.45 173.14c-7.74,0 -14.81,-1.83 -21.22,-5.47 -6.41,-3.65 -11.44,-8.68 -15.08,-15.08 -3.65,-6.41 -5.47,-13.48 -5.47,-21.22 0,-7.95 1.82,-15.08 5.47,-21.38 3.64,-6.3 8.67,-11.27 15.08,-14.91 6.41,-3.65 13.48,-5.48 21.22,-5.48 7.95,0 15.08,1.83 21.38,5.48 6.29,3.64 11.27,8.61 14.91,14.91 3.65,6.3 5.47,13.43 5.47,21.38 0,7.74 -1.82,14.81 -5.47,21.22 -3.64,6.4 -8.62,11.43 -14.91,15.08 -6.3,3.64 -13.43,5.47 -21.38,5.47z"/>
   <path class="fil2" d="M1674.25 173.14c-7.74,0 -14.81,-1.83 -21.21,-5.47 -6.41,-3.65 -11.44,-8.68 -15.09,-15.08 -3.64,-6.41 -5.47,-13.48 -5.47,-21.22 0,-7.95 1.83,-15.08 5.47,-21.38 3.65,-6.3 8.68,-11.27 15.09,-14.91 6.4,-3.65 13.47,-5.48 21.21,-5.48 7.95,0 15.08,1.83 21.38,5.48 6.3,3.64 11.27,8.61 14.92,14.91 3.64,6.3 5.46,13.43 5.46,21.38 0,7.74 -1.82,14.81 -5.46,21.22 -3.65,6.4 -8.62,11.43 -14.92,15.08 -6.3,3.64 -13.43,5.47 -21.38,5.47z"/>
  </g>
 </g>
</svg>
