<?xml version="1.0" encoding="UTF-8"?>
<!DOCTYPE svg PUBLIC "-//W3C//DTD SVG 1.1//EN" "http://www.w3.org/Graphics/SVG/1.1/DTD/svg11.dtd">
<!-- Creator: CorelDRAW -->
<svg xmlns="http://www.w3.org/2000/svg" xml:space="preserve" width="947px" height="407px" version="1.1" style="shape-rendering:geometricPrecision; text-rendering:geometricPrecision; image-rendering:optimizeQuality; fill-rule:evenodd; clip-rule:evenodd"
viewBox="0 0 2036.7 876.1"
 xmlns:xlink="http://www.w3.org/1999/xlink"
 xmlns:xodm="http://www.corel.com/coreldraw/odm/2003">
 <defs>
  <style type="text/css">
   <![CDATA[
    .fil4 {fill:#077777}
    .fil9 {fill:#60A8A8}
    .fil11 {fill:#988D9D}
    .fil14 {fill:#98A7B1}
    .fil15 {fill:#98ADB4}
    .fil3 {fill:#9CC9C9}
    .fil12 {fill:#C68CA4}
    .fil2 {fill:#C9A8B8}
    .fil13 {fill:#DAA4B9}
    .fil5 {fill:#DFCBD5}
    .fil7 {fill:#F2A2BB}
    .fil10 {fill:#F6BACC}
    .fil1 {fill:#F8C7D7}
    .fil8 {fill:#F9D1DD}
    .fil16 {fill:#077777;fill-rule:nonzero}
    .fil6 {fill:#935272;fill-rule:nonzero}
    .fil0 {fill:white;fill-rule:nonzero}
   ]]>
  </style>
 </defs>
 <g id="Layer_x0020_1">
  <metadata id="CorelCorpID_0Corel-Layer"/>
  <path class="fil0" d="M1386.68 81.22l-2.32 14.06 77.69 0 0 34.97 -124.45 0 9.43 -64.28 -9.43 -64.29 123.59 0 0 34.97 -76.83 0 2.32 14.06 69.03 0 0 30.51 -69.03 0zm150.62 9.23l22.8 -58.77 46.29 0 -44.74 98.57 -49.72 0 -44.74 -98.57 48 0 22.11 58.77zm111.06 -0.29c5.56,11.49 20.13,13.69 31.57,13.69 14.33,0 28.79,-3.61 41.14,-10.97l0 24.68c-15.14,10.64 -34.76,15.77 -53.14,15.77 -31.7,0 -64.12,-17.22 -64.12,-52.79 0,-34.05 30.39,-51.94 61.89,-51.94 37.24,0 57.77,24.57 57.77,61.53l-75.11 0.03zm-1.14 -20.08l37.81 -0.01c-2.88,-8.9 -9.26,-13.71 -18.82,-13.71 -9.35,0 -16.22,4.81 -18.99,13.72zm130.2 -19.8c8.69,-13.59 21.59,-21.68 37.93,-21.68 28.74,0 45.43,18.35 45.43,46.11l0 55.54 -43.55 0 0 -49.37c0,-11.02 -6.35,-17.14 -17.31,-17.14 -12,0 -18.69,7.48 -18.69,19.54l0 46.97 -43.53 0 0 -63.26 -6.86 -35.31 43.54 0 3.04 18.6zm89.7 13.12l0 -18.69 19.37 -9.77 19.03 -30.17 24.51 0 0 26.91 38.57 0 0 31.72 -38.57 0 0 20.22c0,13.78 4.97,17.14 18.34,17.14 7.51,0 14.78,-0.96 21.94,-3.25l0 31.54c-17.39,5.11 -44.25,6.69 -61.02,-0.95 -16.17,-7.35 -22.8,-21.62 -22.8,-38.82l0 -25.88 -19.37 0z"/>
  <path class="fil1" d="M117.64 199.01l222.18 -13.29c17.31,-1.03 32.31,12.28 33.35,29.59l21.39 357.48c1.03,17.31 -12.28,32.32 -29.59,33.35l-222.18 13.3c-17.31,1.03 -32.31,-12.28 -33.35,-29.59l-21.39 -357.48c-1.03,-17.31 12.28,-32.32 29.59,-33.36z"/>
  <path class="fil2" d="M136.51 561.16c30.83,4.81 51.93,33.7 47.12,64.54 -4.81,30.83 -33.7,51.93 -64.53,47.12 -30.84,-4.81 -51.93,-33.7 -47.12,-64.54 4.81,-30.83 33.7,-51.93 64.53,-47.12z"/>
  <path class="fil3" d="M91 125.61l96.25 15.02c19.83,3.09 33.53,21.85 30.44,41.68l-48.87 313.33c-3.1,19.84 -21.86,33.54 -41.69,30.44l-96.25 -15.01c-19.84,-3.09 -33.54,-21.85 -30.44,-41.69l48.87 -313.33c3.09,-19.83 21.85,-33.53 41.69,-30.44z"/>
  <path class="fil3" d="M819.77 753.32l17.04 -59.81c3.68,-12.92 17.26,-20.48 30.18,-16.8l321.68 91.66c12.92,3.68 20.48,17.26 16.8,30.19l-17.04 59.8c-3.68,12.92 -17.27,20.48 -30.19,16.8l-321.67 -91.66c-12.92,-3.68 -20.49,-17.26 -16.8,-30.18z"/>
  <path class="fil4" d="M819.77 753.32l10.43 -36.61c21.59,10.43 33.98,34.67 28.52,59.07 -1.01,4.53 -2.57,8.79 -4.6,12.72l-17.55 -5c-12.92,-3.68 -20.49,-17.26 -16.8,-30.18z"/>
  <path class="fil2" d="M818.7 712.71c28.47,6.37 46.39,34.6 40.02,63.07 -6.36,28.47 -34.6,46.39 -63.07,40.02 -28.46,-6.36 -46.38,-34.6 -40.02,-63.07 6.37,-28.46 34.6,-46.38 63.07,-40.02z"/>
  <path class="fil1" d="M781.04 232.73l-23.97 -94.34c-5.18,-20.38 7.26,-41.29 27.64,-46.47l296.57 -75.36c20.38,-5.17 41.3,7.26 46.47,27.65l23.98 94.34c5.17,20.38 -7.26,41.29 -27.65,46.47l-296.57 75.35c-20.38,5.18 -41.29,-7.26 -46.47,-27.64z"/>
  <path class="fil5" d="M629.96 77.74l8.04 -13.97c7.58,-13.17 24.56,-17.75 37.73,-10.17l55.81 32.12 40.39 -70.21c7.58,-13.17 24.56,-17.74 37.73,-10.16l13.97 8.03c13.17,7.58 17.75,24.56 10.17,37.73l-54.18 94.16 -8.04 13.97 0 0c-0.12,0.2 -0.24,0.41 -0.36,0.61l0 0c-0.12,0.2 -0.25,0.4 -0.38,0.6l0 0c-0.12,0.19 -0.25,0.39 -0.38,0.58l0 0c-0.14,0.19 -0.27,0.39 -0.41,0.57l0 0.01c-0.13,0.18 -0.27,0.37 -0.41,0.55l0 0c-0.14,0.19 -0.28,0.37 -0.43,0.55l0 0c-0.14,0.18 -0.29,0.36 -0.44,0.54l0 0c-0.14,0.17 -0.29,0.34 -0.45,0.52l0 0c-0.15,0.17 -0.3,0.34 -0.46,0.5l0 0c-0.15,0.17 -0.31,0.33 -0.47,0.5l0 0c-0.16,0.16 -0.32,0.32 -0.48,0.48l0 0c-0.16,0.16 -0.33,0.31 -0.49,0.46l0 0c-0.17,0.16 -0.34,0.31 -0.51,0.46l0 0c-0.17,0.15 -0.34,0.29 -0.51,0.44 -0.18,0.14 -0.35,0.29 -0.53,0.42l0 0c-0.17,0.14 -0.35,0.28 -0.53,0.42l0 0c-0.18,0.13 -0.36,0.27 -0.54,0.4l0 -0.01c-0.18,0.14 -0.37,0.26 -0.55,0.39l0 0c-0.18,0.13 -0.37,0.25 -0.56,0.37l0 0c-0.19,0.12 -0.37,0.24 -0.56,0.36l0 0c-0.19,0.11 -0.38,0.23 -0.58,0.34 -0.19,0.11 -0.38,0.22 -0.58,0.33l0 0c-0.19,0.1 -0.39,0.21 -0.59,0.31 -0.2,0.1 -0.39,0.2 -0.59,0.3 -0.2,0.1 -0.4,0.19 -0.6,0.28 -0.21,0.1 -0.41,0.19 -0.61,0.28l0 0c-0.21,0.08 -0.41,0.17 -0.62,0.25l0 0c-0.2,0.08 -0.41,0.16 -0.62,0.24l0 0c-0.2,0.08 -0.41,0.15 -0.62,0.22l0 0.01c-0.21,0.07 -0.42,0.14 -0.63,0.2l0 0c-0.21,0.07 -0.42,0.14 -0.64,0.2l0 0c-0.21,0.06 -0.42,0.12 -0.63,0.18 -0.22,0.06 -0.43,0.12 -0.65,0.17l0 0c-0.21,0.05 -0.43,0.1 -0.64,0.15l0 0c-0.22,0.04 -0.44,0.09 -0.65,0.13l0 0c-0.22,0.04 -0.44,0.08 -0.66,0.12l0 0c-0.22,0.04 -0.44,0.07 -0.65,0.1l0 0c-0.23,0.04 -0.44,0.06 -0.66,0.09l0 0c-0.23,0.03 -0.44,0.05 -0.66,0.07 -0.23,0.03 -0.45,0.04 -0.67,0.06 -0.22,0.02 -0.44,0.03 -0.66,0.04 -0.23,0.01 -0.45,0.02 -0.67,0.03l0 0c-0.22,0 -0.45,0 -0.67,0.01 -0.22,0 -0.44,-0.01 -0.67,-0.01l0 0c-0.22,-0.01 -0.44,-0.01 -0.66,-0.03l0 0c-0.23,-0.01 -0.45,-0.02 -0.67,-0.04l0 0c-0.23,-0.01 -0.45,-0.03 -0.67,-0.05l0 0c-0.22,-0.02 -0.45,-0.05 -0.67,-0.07l0 0c-0.22,-0.03 -0.44,-0.06 -0.67,-0.09l0 0c-0.22,-0.04 -0.44,-0.07 -0.66,-0.11 -0.22,-0.04 -0.45,-0.08 -0.67,-0.12l0 0c-0.22,-0.05 -0.44,-0.09 -0.66,-0.14l0 0c-0.22,-0.05 -0.44,-0.1 -0.66,-0.16l0 0c-0.23,-0.05 -0.44,-0.11 -0.66,-0.17l0 0c-0.22,-0.06 -0.44,-0.12 -0.66,-0.19l0 0c-0.22,-0.07 -0.44,-0.13 -0.65,-0.21l0 0c-0.22,-0.07 -0.44,-0.14 -0.65,-0.22l0 0c-0.22,-0.08 -0.44,-0.16 -0.65,-0.24l0 0c-0.22,-0.08 -0.43,-0.17 -0.64,-0.26l0 0c-0.22,-0.09 -0.43,-0.18 -0.64,-0.28l0 0c-0.22,-0.09 -0.43,-0.19 -0.64,-0.29l0 0c-0.21,-0.1 -0.42,-0.2 -0.63,-0.31l0 0c-0.21,-0.11 -0.42,-0.22 -0.63,-0.33l0 0c-0.2,-0.11 -0.41,-0.23 -0.62,-0.35l0 0 -13.97 -8.04 -79.75 -45.89c-13.18,-7.58 -17.75,-24.56 -10.17,-37.73z"/>
  <path class="fil6" d="M1258.84 504.55c-14.63,0 -25.63,-11.2 -25.63,-25.63 0,-14.68 11.15,-25.63 25.63,-25.63 14.74,0 25.62,11.1 25.62,25.63 0,14.68 -11.14,25.63 -25.62,25.63z"/>
  <path class="fil7" d="M1989.79 0l46.56 0 -7.53 80.51 -31.5 0 -7.53 -80.51zm23.28 133.36c-7.12,0 -12.84,-2.01 -17.15,-6.04 -4.32,-4.02 -6.48,-9.3 -6.48,-15.84 0,-6.53 2.16,-11.81 6.48,-15.84 4.31,-4.02 10.03,-6.03 17.15,-6.03 7.12,0 12.83,2.01 17.15,6.03 4.32,4.03 6.48,9.31 6.48,15.84 0,6.54 -2.16,11.82 -6.48,15.84 -4.32,4.03 -10.03,6.04 -17.15,6.04z"/>
  <path class="fil8" d="M1733.35 298.53l-13.62 6.75c-35.83,17.75 -50.63,61.59 -32.88,97.43l70.24 141.78c17.75,35.84 61.59,50.63 97.43,32.88l13.62 -6.74c35.83,-17.76 50.63,-61.6 32.88,-97.43l-70.24 -141.79c-17.75,-35.83 -61.59,-50.63 -97.43,-32.88z"/>
  <path class="fil3" d="M1332.48 558.71l20.83 -72.67c10.89,-38.03 50.91,-60.22 88.93,-49.32l215.7 61.8c38.03,10.9 60.22,50.92 49.33,88.94l-20.83 72.68c-10.89,38.02 -50.91,60.21 -88.94,49.32l-215.7 -61.81c-38.02,-10.9 -60.21,-50.92 -49.32,-88.94z"/>
  <path class="fil3" d="M1626.25 334.67l72.68 20.83c38.02,10.89 60.21,50.91 49.32,88.93l-61.81 215.7c-10.9,38.03 -50.91,60.22 -88.94,49.32l-72.67 -20.82c-38.02,-10.89 -60.22,-50.91 -49.32,-88.94l61.81 -215.7c10.89,-38.02 50.91,-60.21 88.93,-49.32z"/>
  <path class="fil8" d="M2029.18 409.71l-6.74 -13.62c-17.76,-35.84 -61.6,-50.63 -97.44,-32.88l-141.78 70.23c-35.83,17.75 -50.63,61.6 -32.88,97.43l6.75 13.62c17.75,35.84 61.59,50.63 97.43,32.88l141.78 -70.23c35.84,-17.75 50.63,-61.6 32.88,-97.43z"/>
  <path class="fil9" d="M1516.14 457.89l141.8 40.63c37.95,10.88 60.12,50.75 49.39,88.7l-20.89 72.91c-8.68,30.3 -35.86,50.55 -65.78,52.01 -0.59,0.03 -1.18,0.05 -1.76,0.07l0 0 -1.77 0.02 0 0c-0.59,0 -1.19,-0.01 -1.77,-0.02l-0.01 -0.01c-0.59,-0.01 -1.18,-0.03 -1.77,-0.06l0 0c-0.6,-0.04 -1.19,-0.07 -1.78,-0.12l0 0c-0.6,-0.04 -1.19,-0.09 -1.79,-0.15l0 -0.01c-0.59,-0.05 -1.19,-0.12 -1.78,-0.2l-0.01 0c-0.59,-0.08 -1.19,-0.16 -1.78,-0.25l-0.01 0c-0.59,-0.09 -1.18,-0.19 -1.78,-0.29l0 -0.01c-0.6,-0.1 -1.2,-0.22 -1.79,-0.34l0 0c-0.6,-0.12 -1.19,-0.25 -1.79,-0.39l0 0 -1.78 -0.44 0 0c-0.6,-0.15 -1.19,-0.31 -1.79,-0.48l0 -0.01 -72.67 -20.82c-38.02,-10.89 -60.22,-50.91 -49.32,-88.94l40.63 -141.8z"/>
  <path class="fil10" d="M1750.31 530.81l6.78 13.68c0.28,0.56 0.56,1.12 0.85,1.67 0.29,0.55 0.59,1.09 0.89,1.63 0.3,0.54 0.61,1.07 0.92,1.6 0.31,0.53 0.64,1.05 0.96,1.57 0.33,0.52 0.66,1.03 1,1.54 0.34,0.51 0.68,1.01 1.03,1.51l1.06 1.47c0.36,0.49 0.73,0.97 1.1,1.44l1.13 1.41c0.38,0.46 0.77,0.92 1.16,1.37 0.39,0.46 0.79,0.91 1.19,1.35 0.4,0.44 0.81,0.87 1.22,1.31 0.41,0.42 0.83,0.85 1.25,1.27l0 0c0.42,0.42 0.84,0.83 1.28,1.24 0.43,0.41 0.86,0.81 1.3,1.2l0 0.01c0.44,0.39 0.88,0.78 1.33,1.16l1.36 1.14c0.45,0.37 0.91,0.74 1.38,1.1l1.4 1.06 0 0 1.43 1.03 0 0c0.48,0.34 0.97,0.67 1.45,1 0.49,0.32 0.98,0.64 1.48,0.95l1.49 0.92c0.5,0.3 1.01,0.6 1.52,0.88l1.53 0.85 1.55 0.81 0 0c0.52,0.26 1.05,0.52 1.57,0.77 0.53,0.25 1.06,0.49 1.59,0.73l1.61 0.69 0 0.01c0.54,0.22 1.08,0.44 1.62,0.65l0 0c0.54,0.22 1.09,0.42 1.63,0.62l1.65 0.58 0 0c0.55,0.18 1.11,0.36 1.66,0.53 0.56,0.18 1.12,0.35 1.68,0.51 0.56,0.16 1.12,0.31 1.69,0.45l0 0.01 1.69 0.42c0.57,0.13 1.13,0.26 1.71,0.37 0.57,0.12 1.14,0.24 1.71,0.34l0 0c0.58,0.11 1.15,0.21 1.73,0.3 0.58,0.1 1.15,0.18 1.73,0.26l1.74 0.21c0.58,0.07 1.17,0.13 1.75,0.18 0.58,0.05 1.17,0.09 1.75,0.13 0.59,0.04 1.17,0.07 1.76,0.09 0.58,0.02 1.17,0.04 1.76,0.05 0.58,0.01 1.17,0.01 1.76,0 0.59,0 1.18,-0.02 1.77,-0.04 0.58,-0.02 1.17,-0.05 1.76,-0.08 0.59,-0.03 1.18,-0.07 1.77,-0.12 0.59,-0.05 1.18,-0.11 1.77,-0.17 0.59,-0.07 1.17,-0.13 1.77,-0.21 0.58,-0.08 1.17,-0.17 1.76,-0.26 0.59,-0.09 1.18,-0.2 1.76,-0.3 0.59,-0.11 1.18,-0.22 1.76,-0.35 0.59,-0.12 1.18,-0.25 1.76,-0.39 0.58,-0.14 1.17,-0.28 1.75,-0.43 0.58,-0.16 1.16,-0.32 1.75,-0.49 0.58,-0.16 1.16,-0.34 1.74,-0.53 0.57,-0.18 1.15,-0.37 1.73,-0.57 0.57,-0.2 1.15,-0.41 1.72,-0.62l1.72 -0.66c0.57,-0.24 1.14,-0.47 1.71,-0.72 0.56,-0.24 1.13,-0.5 1.69,-0.76 0.57,-0.26 1.13,-0.53 1.69,-0.81l13.62 -6.74c35.83,-17.76 50.63,-61.6 32.88,-97.43l-39.03 -78.78 -78.77 39.02c-35.81,17.74 -50.61,61.54 -32.91,97.37z"/>
  <path class="fil11" d="M819.77 753.32l10.43 -36.61c21.59,10.43 33.98,34.67 28.52,59.07 -1.01,4.53 -2.57,8.79 -4.6,12.72l-17.55 -5c-12.92,-3.68 -20.49,-17.26 -16.8,-30.18z"/>
  <path class="fil12" d="M184.32 616.95l-41.53 2.49c-17.31,1.03 -32.31,-12.28 -33.35,-29.59l-1.54 -25.75c8.83,-3.33 18.62,-4.5 28.61,-2.94 27.9,4.35 47.82,28.41 47.81,55.79z"/>
  <path class="fil13" d="M764.43 167.38l-7.36 -28.99c-5.18,-20.38 7.26,-41.29 27.64,-46.47l29.99 -7.62 -35.08 60.97 -8.04 13.97c-0.12,0.2 -0.24,0.41 -0.36,0.61 -0.12,0.2 -0.25,0.4 -0.38,0.6 -0.12,0.19 -0.25,0.39 -0.38,0.58 -0.14,0.19 -0.27,0.39 -0.41,0.57l0 0.01c-0.13,0.18 -0.27,0.37 -0.41,0.55 -0.14,0.19 -0.28,0.37 -0.43,0.55 -0.14,0.18 -0.29,0.36 -0.44,0.54 -0.14,0.17 -0.29,0.34 -0.45,0.52 -0.15,0.17 -0.3,0.34 -0.46,0.5l0 0c-0.15,0.17 -0.31,0.33 -0.47,0.5 -0.16,0.16 -0.32,0.32 -0.48,0.48 -0.16,0.16 -0.33,0.31 -0.49,0.46 -0.17,0.16 -0.34,0.31 -0.51,0.46 -0.17,0.15 -0.34,0.29 -0.51,0.44 -0.18,0.14 -0.35,0.29 -0.53,0.42l-0.44 0.35z"/>
  <path class="fil14" d="M117.64 199.01l98.36 -5.88 -47.18 302.51c-3.1,19.84 -21.86,33.54 -41.69,30.44l-21.71 -3.38 -17.37 -290.33c-1.03,-17.31 12.28,-32.32 29.59,-33.36z"/>
  <path class="fil15" d="M1682.12 350.68l16.81 4.81c38.02,10.9 60.21,50.92 49.32,88.95l-14.93 52.08 -46.47 -93.81c-8.29,-16.76 -9.48,-35.26 -4.73,-52.03z"/>
  <path class="fil0" d="M760.95 373.59l0 129.06 -44.4 0 0 -109.79 19.96 19.96 -94.3 0 19.96 -19.96 0 109.79 -44.4 0 0 -129.06 143.18 0zm41.37 30.11l113.92 0 0 98.95 -43.71 0 0 -86.73 19.96 19.96 -68.32 0 18.42 -17.38c0.68,6.66 1.2,12.42 1.55,17.3 0.34,4.87 0.51,9.32 0.51,13.34 0,19.73 -3.21,33.95 -9.64,42.67 -6.42,8.72 -16.86,13.08 -31.32,13.08 -4.36,0 -8.43,-0.43 -12.21,-1.29 -3.79,-0.86 -7.58,-2.32 -11.36,-4.39l0 -30.63c2.06,0.8 4.1,1.38 6.11,1.72 2.01,0.35 3.76,0.52 5.25,0.52 5.04,0 8.57,-2.12 10.58,-6.37 2.01,-4.25 3.01,-11.36 3.01,-21.34 0,-5.16 -0.23,-11.01 -0.69,-17.55 -0.46,-6.54 -1.14,-13.83 -2.06,-21.86zm225.16 98.95l-4.99 -34.93 4.99 -14.46 -4.99 -14.28 4.99 -35.28 45.43 0 -6.88 49.39 6.88 49.56 -45.43 0zm9.12 -49.39c-1.15,10.56 -3.99,19.77 -8.52,27.62 -4.53,7.86 -10.44,13.97 -17.72,18.33 -7.29,4.36 -15.64,6.54 -25.04,6.54 -9.64,0 -18.1,-2.18 -25.38,-6.54 -7.29,-4.36 -12.97,-10.49 -17.04,-18.41 -4.07,-7.92 -6.11,-17.1 -6.11,-27.54 0,-10.55 2.04,-19.79 6.11,-27.7 4.07,-7.92 9.75,-14.06 17.04,-18.41 7.28,-4.36 15.74,-6.55 25.38,-6.55 9.4,0 17.75,2.16 25.04,6.46 7.28,4.3 13.22,10.38 17.81,18.24 4.59,7.86 7.4,17.18 8.43,27.96zm-55.76 0c0,3.79 0.78,7.14 2.33,10.07 1.55,2.93 3.72,5.25 6.54,6.97 2.81,1.72 6.05,2.58 9.72,2.58 3.78,0 7.46,-0.86 11.01,-2.58 3.56,-1.72 6.69,-4.04 9.38,-6.97 2.7,-2.93 4.56,-6.28 5.59,-10.07 -1.03,-3.78 -2.89,-7.17 -5.59,-10.15 -2.69,-2.98 -5.82,-5.33 -9.38,-7.05 -3.55,-1.73 -7.23,-2.59 -11.01,-2.59 -3.67,0 -6.91,0.86 -9.72,2.59 -2.82,1.72 -4.99,4.07 -6.54,7.05 -1.55,2.98 -2.33,6.37 -2.33,10.15zm113.48 -49.56l43.71 0 0 98.95 -43.71 0 0 -98.95zm80.53 0l43.72 0 0 98.95 -43.72 0 0 -98.95zm-55.24 32.01l71.25 0 0 32.18 -71.25 0 0 -32.18z"/>
  <path class="fil16" d="M635.5 853.49c-14.92,0 -26.14,-11.42 -26.14,-26.14 0,-14.98 11.37,-26.14 26.14,-26.14 15.04,0 26.14,11.31 26.14,26.14 0,14.97 -11.36,26.14 -26.14,26.14z"/>
  <path class="fil0" d="M0 852.18l0 -129.06 44.05 0 0 104.79 -11.35 -2.58 61.95 -102.21 57.99 0 0 129.06 -44.05 0 0 -107.55 11.36 2.58 -63.68 104.97 -56.27 0zm325.66 -32.18l0 55.07 -37.52 0 0 -22.89 -78.12 0 0 22.89 -37.52 0 0 -55.07 32.53 0 6.71 0.69 71.41 0 6.2 -0.69 36.31 0zm-133.54 -66.77l115.64 0 0 92.24 -43.36 0 0 -81.06 19.96 19.97 -71.42 0 15.49 -16.35c2.29,4.59 3.64,8.8 4.04,12.65 0.4,3.84 0.61,7.31 0.61,10.41 0,15.26 -2.96,27.02 -8.87,35.28 -5.9,8.26 -14.31,12.39 -25.21,12.39l-17.72 -14.8c8.6,-5.85 12.9,-19.73 12.9,-41.65 0,-4.36 -0.17,-8.95 -0.51,-13.76 -0.35,-4.82 -0.86,-9.93 -1.55,-15.32zm212.25 102.05c-12.27,0 -23.26,-2.21 -32.95,-6.63 -9.7,-4.42 -17.36,-10.61 -22.98,-18.58 -5.62,-7.98 -8.43,-17.24 -8.43,-27.79 0,-10.45 2.72,-19.56 8.17,-27.37 5.45,-7.8 12.88,-13.88 22.29,-18.24 9.41,-4.36 19.96,-6.54 31.66,-6.54 12.28,0 22.72,2.52 31.32,7.57 8.61,5.05 15.21,12.19 19.79,21.43 4.59,9.24 6.89,20.16 6.89,32.78l-84.33 0 0 -20.13 58.86 0 -11.7 6.54c-0.58,-4.48 -1.72,-8.21 -3.45,-11.19 -1.72,-2.98 -3.98,-5.25 -6.79,-6.8 -2.81,-1.55 -6.17,-2.32 -10.07,-2.32 -4.36,0 -8.06,0.97 -11.1,2.93 -3.04,1.95 -5.34,4.61 -6.88,8 -1.55,3.38 -2.33,7.2 -2.33,11.44 0,5.51 1.24,10.13 3.7,13.86 2.47,3.72 6.23,6.56 11.28,8.51 5.04,1.95 11.41,2.93 19.1,2.93 7.45,0 14.71,-0.95 21.77,-2.84 7.05,-1.89 13.56,-4.62 19.53,-8.18l0 24.79c-7.35,5.16 -15.69,9.09 -25.04,11.78 -9.35,2.7 -18.79,4.05 -28.31,4.05zm161.14 -58.51l0 25.98 -45.6 0 -0.17 -1.37c-8.26,0 -15.49,-1.35 -21.69,-4.05 -6.19,-2.69 -11.04,-6.59 -14.54,-11.7 -3.5,-5.1 -5.25,-10.99 -5.25,-17.64 0,-7 1.75,-13.08 5.25,-18.24 3.5,-5.16 8.35,-9.21 14.54,-12.13 6.2,-2.93 13.43,-4.39 21.69,-4.39l77.61 0 0 98.95 -43.71 0 0 -88.63 11.36 17.04 -33.56 0c-2.87,0 -5.11,0.69 -6.71,2.07 -1.61,1.37 -2.41,3.32 -2.41,5.85 0,2.64 0.8,4.67 2.41,6.11 1.6,1.43 3.84,2.15 6.71,2.15l34.07 0zm-12.73 9.12l-29.09 46.29 -48.52 0 31.14 -46.29 46.47 0z"/>
 </g>
</svg>
