<?xml version="1.0" encoding="UTF-8"?>
<!DOCTYPE svg PUBLIC "-//W3C//DTD SVG 1.1//EN" "http://www.w3.org/Graphics/SVG/1.1/DTD/svg11.dtd">
<!-- Creator: CorelDRAW -->
<svg xmlns="http://www.w3.org/2000/svg" xml:space="preserve" width="947px" height="407px" version="1.1" style="shape-rendering:geometricPrecision; text-rendering:geometricPrecision; image-rendering:optimizeQuality; fill-rule:evenodd; clip-rule:evenodd"
viewBox="0 0 6457.87 2777.88"
 xmlns:xlink="http://www.w3.org/1999/xlink"
 xmlns:xodm="http://www.corel.com/coreldraw/odm/2003">
 <defs>
  <style type="text/css">
   <![CDATA[
    .fil4 {fill:#077777}
    .fil10 {fill:#60A8A8}
    .fil13 {fill:#988D9D}
    .fil16 {fill:#98A7B1}
    .fil12 {fill:#98ADB4}
    .fil3 {fill:#9CC9C9}
    .fil14 {fill:#C68CA4}
    .fil2 {fill:#C9A8B8}
    .fil15 {fill:#DAA4B9}
    .fil5 {fill:#DFCBD5}
    .fil9 {fill:#F2A2BB}
    .fil11 {fill:#F6BACC}
    .fil1 {fill:#F8C7D7}
    .fil6 {fill:#F9D1DD}
    .fil0 {fill:#4B4B4D;fill-rule:nonzero}
    .fil7 {fill:#077777;fill-rule:nonzero}
    .fil8 {fill:#935272;fill-rule:nonzero}
   ]]>
  </style>
 </defs>
 <g id="Layer_x0020_1">
  <metadata id="CorelCorpID_0Corel-Layer"/>
  <path class="fil0" d="M4396.84 257.53l-7.36 44.58 246.33 0 0 110.88 -394.62 0 29.91 -203.83 -29.91 -203.82 391.89 0 0 110.88 -243.6 0 7.35 44.57 218.86 0 0 96.74 -218.85 0zm477.56 29.28l72.31 -186.36 146.75 0 -141.86 312.54 -157.62 0 -141.87 -312.54 152.2 0 70.09 186.36zm352.16 -0.94c17.63,36.44 63.82,43.41 100.08,43.41 45.44,0 91.3,-11.46 130.44,-34.78l0 78.27c-47.98,33.73 -110.22,50 -168.49,50 -100.52,0 -203.29,-54.61 -203.29,-167.41 0,-107.95 96.36,-164.69 196.23,-164.69 118.07,0 183.16,77.92 183.16,195.13l-238.13 0.07zm-3.63 -63.67l119.88 -0.02c-9.13,-28.21 -29.34,-43.46 -59.66,-43.46 -29.65,0 -51.43,15.25 -60.22,43.48zm412.83 -62.76c27.57,-43.1 68.46,-68.77 120.27,-68.77 91.14,0 144.04,58.2 144.04,146.21l0 176.11 -138.06 0 0 -156.54c0,-34.95 -20.14,-54.36 -54.91,-54.36 -38.05,0 -59.24,23.74 -59.24,61.97l0 148.93 -138.05 0 0 -200.57 -21.74 -111.97 138.05 0 9.64 58.99zm284.41 41.57l0 -59.25 61.43 -30.98 60.33 -95.66 77.72 0 0 85.33 122.29 0 0 100.56 -122.29 0 0 64.13c0,43.69 15.77,54.36 58.16,54.36 23.82,0 46.84,-3.07 69.57,-10.33l0 100.01c-55.14,16.2 -140.31,21.23 -193.5,-2.99 -51.25,-23.33 -72.28,-68.57 -72.28,-123.11l0 -82.07 -61.43 0z"/>
  <path class="fil0" d="M2380.13 1373.15l88.05 0c25.25,0 43.48,-12.38 43.48,-39.13 0,-27.13 -17.89,-39.14 -43.48,-39.14l-88.05 0 0 78.27zm0 109.25l0 110.88 -140.23 0 0 -407.65 237.53 0c93.53,0 175.55,43.33 175.55,148.39 0,102.95 -79.32,148.38 -175.55,148.38l-97.3 0zm308.18 -307.64l138.06 0 0 418.52 -138.06 0 0 -418.52zm458.01 364.82c-30.07,41.85 -73.84,63.49 -125.36,63.49 -98.29,0 -153.28,-73.53 -153.28,-165.78 0,-93.5 55.57,-166.32 153.28,-166.32 51.55,0 95.22,21.25 125.55,62.98l7.61 -53.2 143.49 0 -21.74 156 21.74 156.53 -143.49 0 -7.8 -53.7zm-139.49 -102.29c0,34.76 22.89,61.96 58.69,61.96 36.11,0 72.54,-26.99 82.07,-61.96 -9.58,-35.2 -45.62,-62.51 -82.07,-62.51 -36.12,0 -58.69,27.61 -58.69,62.51zm468.52 -98.65c14.5,-22.66 32.06,-39.59 52.72,-50.82 20.66,-11.23 42.93,-16.85 66.86,-16.85 89.93,0 144.03,57.04 144.03,146.2l0 176.11 -138.05 0 0 -156.53c0,-34.95 -20.15,-54.37 -54.91,-54.37 -12.31,0 -22.91,2.46 -31.79,7.35 -8.88,4.89 -15.67,11.95 -20.38,21.2 -4.72,9.23 -7.07,20.38 -7.07,33.43l0 148.92 -138.06 0 0 -200.57 -21.74 -111.96 138.06 0 10.33 57.89z"/>
  <path class="fil0" d="M0 2360.45l140.23 0 0 407.65 -140.23 0 0 -407.65zm463.93 350.14c-29.91,44.1 -74.73,67.29 -128.03,67.29 -96.33,0 -153.27,-71.42 -153.27,-165.77 0,-92.49 54.53,-166.33 153.27,-166.33 52.45,0 96.63,22 126.9,64.87l21.49 -161.06 143.49 0 -34.79 251.11 22.29 167.4 -143.49 0 -7.86 -57.51zm-142.16 -98.48c0,34.49 22.56,61.96 58.7,61.96 36.07,0 72.52,-26.93 82.07,-61.96 -9.6,-35.21 -45.67,-62.51 -82.07,-62.51 -35.79,0 -58.7,27.27 -58.7,62.51zm461.36 28.79c17.68,36.53 63.75,43.5 100.11,43.5 45.44,0 91.3,-11.46 130.45,-34.78l0 78.26c-47.99,33.74 -110.22,50 -168.5,50 -100.52,0 -203.28,-54.6 -203.28,-167.4 0,-109.33 97.88,-164.7 196.22,-164.7 121.14,0 183.16,81.33 183.16,195.13l-238.16 -0.01zm-3.59 -63.58l119.89 0.02c-9.26,-28.72 -29.88,-43.5 -59.68,-43.5 -29.68,0 -51.41,15.23 -60.21,43.48zm550.62 -68.36l7.47 -53.39 143.49 0 -21.74 155.99 21.74 156.54 -143.49 0 -7.67 -53.87c-30.07,41.95 -73.88,63.65 -125.49,63.65 -96.34,0 -153.28,-71.42 -153.28,-165.77 0,-92.49 54.53,-166.33 153.28,-166.33 51.63,0 95.38,21.33 125.69,63.18zm-139.82 103.15c0,35.09 23.2,61.96 58.7,61.96 36.07,0 72.52,-26.93 82.06,-61.96 -9.57,-35.13 -45.61,-62.51 -82.06,-62.51 -36.46,0 -58.7,27.91 -58.7,62.51z"/>
  <path class="fil1" d="M373 631.03l704.48 -42.15c54.89,-3.29 102.47,38.93 105.75,93.81l67.82 1133.49c3.28,54.89 -38.92,102.47 -93.81,105.75l-704.48 42.15c-54.88,3.29 -102.46,-38.92 -105.75,-93.81l-67.82 -1133.49c-3.28,-54.88 38.93,-102.47 93.81,-105.75z"/>
  <path class="fil2" d="M432.85 1779.3c97.76,15.25 164.66,106.87 149.41,204.63 -15.25,97.77 -106.87,164.66 -204.63,149.41 -97.77,-15.25 -164.66,-106.86 -149.41,-204.63 15.25,-97.76 106.86,-164.66 204.63,-149.41z"/>
  <path class="fil3" d="M288.53 398.28l305.19 47.61c62.9,9.81 106.32,69.28 96.52,132.18l-154.96 993.49c-9.81,62.9 -69.29,106.33 -132.18,96.52l-305.2 -47.61c-62.9,-9.8 -106.33,-69.29 -96.52,-132.18l154.96 -993.49c9.81,-62.89 69.29,-106.32 132.19,-96.52z"/>
  <path class="fil3" d="M2599.28 2388.59l54.03 -189.63c11.68,-40.98 54.75,-64.95 95.72,-53.27l1019.95 290.62c40.98,11.67 64.95,54.74 53.27,95.71l-54.03 189.63c-11.68,40.98 -54.74,64.95 -95.72,53.27l-1019.95 -290.62c-40.97,-11.67 -64.95,-54.74 -53.27,-95.71z"/>
  <path class="fil4" d="M2599.28 2388.59l33.07 -116.07c68.46,33.06 107.76,109.91 90.45,187.3 -3.21,14.35 -8.17,27.85 -14.61,40.34l-55.64 -15.86c-40.97,-11.67 -64.95,-54.74 -53.27,-95.71z"/>
  <path class="fil2" d="M2595.9 2259.84c90.27,20.18 147.08,109.71 126.9,199.98 -20.18,90.26 -109.71,147.07 -199.98,126.89 -90.26,-20.18 -147.08,-109.71 -126.89,-199.97 20.18,-90.27 109.71,-147.08 199.97,-126.9z"/>
  <path class="fil1" d="M2476.48 737.94l-76 -299.13c-16.43,-64.63 23.02,-130.94 87.65,-147.35l940.35 -238.94c64.63,-16.42 130.94,23.02 147.36,87.65l76 299.13c16.42,64.63 -23.02,130.94 -87.65,147.36l-940.35 238.92c-64.63,16.43 -130.94,-23.02 -147.36,-87.64z"/>
  <path class="fil5" d="M1997.45 246.5l25.49 -44.29c24.03,-41.77 77.86,-56.28 119.63,-32.24l176.95 101.82 128.09 -222.6c24.04,-41.77 77.87,-56.28 119.63,-32.24l44.3 25.49c41.76,24.03 56.26,77.86 32.24,119.62l-171.79 298.54 -25.49 44.3 0 0c-0.38,0.65 -0.76,1.3 -1.15,1.94l0 0c-0.39,0.64 -0.79,1.27 -1.19,1.89l0 0c-0.4,0.63 -0.81,1.25 -1.23,1.86l0 0c-0.42,0.62 -0.84,1.22 -1.28,1.81l0 0.01c-0.43,0.6 -0.87,1.19 -1.31,1.77l0 0c-0.44,0.59 -0.89,1.16 -1.35,1.74l0 0c-0.46,0.57 -0.92,1.13 -1.39,1.69l0 0c-0.47,0.56 -0.95,1.11 -1.43,1.65l0 0c-0.48,0.54 -0.97,1.08 -1.46,1.61l0 0c-0.5,0.53 -0.99,1.05 -1.5,1.57l0 0c-0.5,0.51 -1.02,1.02 -1.53,1.52l0 0c-0.52,0.51 -1.04,1 -1.56,1.48l0 0c-0.53,0.49 -1.07,0.97 -1.61,1.44l0 0c-0.54,0.48 -1.07,0.94 -1.62,1.39 -0.55,0.46 -1.11,0.91 -1.66,1.36l0 0c-0.56,0.44 -1.12,0.87 -1.68,1.31l-0.01 0c-0.57,0.43 -1.14,0.84 -1.72,1.26l0 0c-0.57,0.41 -1.16,0.82 -1.74,1.22l0 0c-0.58,0.4 -1.17,0.79 -1.77,1.17l0 0c-0.59,0.39 -1.19,0.76 -1.79,1.13l0 0c-0.61,0.37 -1.21,0.73 -1.82,1.09 -0.61,0.35 -1.23,0.7 -1.85,1.04l0 0c-0.62,0.34 -1.24,0.67 -1.86,1 -0.63,0.32 -1.26,0.63 -1.89,0.94 -0.63,0.31 -1.27,0.61 -1.91,0.9 -0.64,0.3 -1.28,0.58 -1.93,0.86l0 0c-0.64,0.27 -1.29,0.54 -1.94,0.81l-0.01 0c-0.65,0.26 -1.3,0.51 -1.96,0.76l0 0c-0.65,0.24 -1.31,0.48 -1.98,0.71l0 0.01c-0.66,0.22 -1.33,0.45 -2,0.66l0 0c-0.67,0.22 -1.34,0.42 -2.01,0.62l0 0c-0.67,0.2 -1.35,0.39 -2.02,0.57 -0.68,0.18 -1.36,0.36 -2.04,0.52l-0.01 0c-0.67,0.17 -1.36,0.33 -2.04,0.48l0 0c-0.69,0.15 -1.38,0.3 -2.06,0.42l0 0c-0.7,0.14 -1.39,0.27 -2.08,0.38l0 0c-0.69,0.12 -1.39,0.23 -2.08,0.33l0 0c-0.7,0.11 -1.39,0.2 -2.09,0.29l0 0c-0.7,0.08 -1.39,0.16 -2.1,0.22 -0.7,0.07 -1.4,0.13 -2.1,0.18 -0.71,0.05 -1.41,0.09 -2.11,0.13 -0.7,0.04 -1.41,0.06 -2.11,0.08l0 0c-0.7,0.01 -1.41,0.02 -2.12,0.03 -0.7,0 -1.41,-0.01 -2.12,-0.02l0 0c-0.7,-0.02 -1.41,-0.05 -2.12,-0.09l0 0c-0.71,-0.03 -1.41,-0.07 -2.11,-0.12l0 0c-0.71,-0.05 -1.42,-0.11 -2.13,-0.17l0 0c-0.7,-0.08 -1.41,-0.15 -2.12,-0.24l0 0c-0.71,-0.08 -1.41,-0.17 -2.11,-0.28l0 0c-0.71,-0.1 -1.41,-0.22 -2.11,-0.34 -0.7,-0.12 -1.41,-0.25 -2.11,-0.38l0 0c-0.7,-0.14 -1.4,-0.29 -2.11,-0.45l0 0c-0.7,-0.15 -1.4,-0.32 -2.1,-0.49l0 0c-0.7,-0.17 -1.39,-0.35 -2.09,-0.54l0 0c-0.69,-0.2 -1.38,-0.4 -2.08,-0.61l0 0c-0.69,-0.21 -1.38,-0.43 -2.07,-0.65l0 0c-0.69,-0.23 -1.38,-0.47 -2.07,-0.71l0 -0.01c-0.68,-0.24 -1.36,-0.5 -2.05,-0.75l0 -0.01c-0.68,-0.26 -1.36,-0.53 -2.04,-0.82l0 0c-0.67,-0.29 -1.35,-0.58 -2.02,-0.87l0 0c-0.68,-0.3 -1.35,-0.61 -2.02,-0.94l0 0c-0.67,-0.31 -1.33,-0.64 -1.99,-0.98l0 0c-0.67,-0.34 -1.33,-0.68 -1.99,-1.04l0 -0.01c-0.66,-0.35 -1.32,-0.71 -1.97,-1.09l0 0 -44.3 -25.49 -252.89 -145.52c-41.76,-24.03 -56.27,-77.86 -32.23,-119.63z"/>
  <path class="fil6" d="M5406.37 1248.23l-45.76 22.67c-120.42,59.65 -170.14,206.97 -110.48,327.38l235.99 476.43c59.65,120.42 206.97,170.13 327.38,110.48l45.77 -22.67c120.42,-59.65 170.14,-206.97 110.48,-327.38l-236 -476.43c-59.65,-120.41 -206.97,-170.13 -327.38,-110.48z"/>
  <path class="fil3" d="M4112.55 1904.54l82.1 -240.39c42.95,-125.78 180.99,-193.53 306.76,-150.57l713.5 243.67c125.77,42.96 193.52,180.99 150.57,306.77l-82.1 240.39c-42.96,125.77 -180.98,193.52 -306.76,150.57l-713.5 -243.68c-125.77,-42.95 -193.53,-180.99 -150.57,-306.76z"/>
  <path class="fil3" d="M5136.08 1202.04l240.4 82.1c125.77,42.95 193.52,180.99 150.57,306.76l-243.68 713.5c-42.95,125.77 -180.99,193.53 -306.75,150.57l-240.4 -82.1c-125.77,-42.95 -193.52,-180.98 -150.57,-306.75l243.67 -713.51c42.96,-125.77 180.99,-193.53 306.76,-150.57z"/>
  <path class="fil6" d="M6400.41 1621.8l-22.66 -45.76c-59.66,-120.41 -206.98,-170.13 -327.39,-110.48l-476.43 236c-120.41,59.65 -170.13,206.96 -110.48,327.38l22.67 45.77c59.65,120.41 206.97,170.13 327.38,110.48l476.43 -236c120.42,-59.65 170.13,-206.97 110.48,-327.39z"/>
  <path class="fil7" d="M1596.63 2774.62c-47.31,0 -82.89,-36.2 -82.89,-82.89 0,-47.48 36.06,-82.88 82.89,-82.88 47.68,0 82.89,35.88 82.89,82.88 0,47.48 -36.03,82.89 -82.89,82.89z"/>
  <path class="fil8" d="M3857.19 1599.81c-46.39,0 -81.27,-35.5 -81.27,-81.27 0,-46.55 35.36,-81.26 81.27,-81.26 46.74,0 81.26,35.18 81.26,81.26 0,46.55 -35.32,81.27 -81.26,81.27z"/>
  <path class="fil9" d="M6309.15 0l147.6 0 -23.85 255.26 -99.89 0 -23.86 -255.26zm73.8 422.85c-22.56,0 -40.7,-6.39 -54.38,-19.14 -13.68,-12.76 -20.53,-29.5 -20.53,-50.23 0,-20.71 6.85,-37.45 20.53,-50.22 13.68,-12.76 31.82,-19.14 54.38,-19.14 22.56,0 40.7,6.38 54.38,19.14 13.69,12.77 20.54,29.51 20.54,50.22 0,20.73 -6.85,37.47 -20.54,50.23 -13.68,12.75 -31.82,19.14 -54.38,19.14z"/>
  <path class="fil10" d="M4745.85 1597.05l469.06 160.2c125.51,42.87 193.23,180.41 150.84,305.97l-82.38 241.18c-34.23,100.23 -128.83,163.61 -229.5,163.49 -1.97,0 -3.94,-0.03 -5.92,-0.08l0 0 -5.94 -0.22 -0.01 -0.01c-1.98,-0.1 -3.96,-0.22 -5.94,-0.37l0 -0.01c-1.98,-0.15 -3.97,-0.32 -5.95,-0.52l-0.01 -0.01c-1.98,-0.2 -3.97,-0.42 -5.95,-0.67l0 -0.01c-1.99,-0.25 -3.97,-0.51 -5.96,-0.82l0 -0.01c-1.99,-0.29 -3.98,-0.62 -5.96,-0.98l-0.01 -0.01c-1.99,-0.35 -3.97,-0.72 -5.95,-1.12l-0.01 -0.01c-1.98,-0.4 -3.96,-0.84 -5.94,-1.29l-0.01 -0.01c-1.98,-0.46 -3.97,-0.94 -5.94,-1.45l0 0c-1.98,-0.51 -3.94,-1.04 -5.93,-1.61l0 0 -5.92 -1.77 0 -0.01c-1.97,-0.62 -3.93,-1.24 -5.9,-1.92l0 -0.01 -240.4 -82.1c-125.77,-42.95 -193.52,-180.98 -150.57,-306.75l160.2 -469.07z"/>
  <path class="fil11" d="M5463.35 2028.73l22.77 45.98c0.94,1.88 1.89,3.74 2.86,5.59 0.98,1.85 1.97,3.67 2.99,5.49 1.01,1.81 2.05,3.6 3.11,5.38 1.05,1.78 2.13,3.54 3.23,5.28 1.09,1.74 2.21,3.46 3.34,5.17 1.14,1.7 2.29,3.39 3.47,5.06l3.57 4.95c1.21,1.64 2.44,3.25 3.69,4.84l3.79 4.73c1.28,1.57 2.59,3.1 3.9,4.63 1.32,1.52 2.65,3.02 4,4.51 1.35,1.48 2.71,2.94 4.1,4.39 1.38,1.44 2.78,2.87 4.19,4.28l0 0c1.42,1.41 2.85,2.8 4.29,4.17 1.45,1.37 2.91,2.71 4.38,4.04l0 0.01c1.48,1.33 2.97,2.64 4.47,3.93l4.57 3.81c1.53,1.25 3.07,2.49 4.64,3.7l4.72 3.57 0 0.01 4.8 3.45 0 0.01c1.61,1.13 3.24,2.24 4.88,3.33 1.63,1.09 3.29,2.16 4.95,3.21l5.02 3.09c1.68,1.01 3.39,2 5.09,2.97l5.16 2.84 5.21 2.71 0 0.01c1.75,0.89 3.52,1.75 5.29,2.58 1.77,0.85 3.54,1.66 5.33,2.47l5.39 2.32 0 0.01c1.8,0.76 3.62,1.49 5.44,2.2l0 0.01c1.82,0.72 3.66,1.4 5.5,2.07l5.53 1.94 0 0.01c1.86,0.62 3.72,1.22 5.59,1.8 1.87,0.58 3.75,1.15 5.63,1.68 1.88,0.54 3.77,1.05 5.67,1.54l0 0.01 5.7 1.41c1.91,0.45 3.81,0.87 5.73,1.27 1.92,0.4 3.85,0.78 5.77,1.14l0 0c1.93,0.36 3.86,0.7 5.8,1 1.94,0.32 3.88,0.6 5.82,0.86l5.85 0.73c1.95,0.22 3.9,0.42 5.87,0.59 1.95,0.16 3.92,0.32 5.88,0.44 1.97,0.12 3.93,0.22 5.91,0.3 1.97,0.08 3.93,0.13 5.9,0.16 1.98,0.03 3.95,0.03 5.93,0.01 1.98,-0.01 3.95,-0.06 5.93,-0.13 1.99,-0.06 3.96,-0.16 5.94,-0.27 1.98,-0.11 3.96,-0.26 5.94,-0.42 1.98,-0.17 3.96,-0.34 5.94,-0.56 1.98,-0.22 3.96,-0.45 5.94,-0.72 1.98,-0.26 3.95,-0.55 5.93,-0.86 1.98,-0.31 3.95,-0.65 5.93,-1.01 1.97,-0.37 3.93,-0.74 5.91,-1.16 1.97,-0.41 3.93,-0.86 5.9,-1.32 1.96,-0.46 3.93,-0.95 5.88,-1.46 1.96,-0.52 3.92,-1.05 5.87,-1.62 1.96,-0.56 3.9,-1.17 5.84,-1.78 1.95,-0.62 3.89,-1.25 5.82,-1.92 1.94,-0.67 3.87,-1.37 5.8,-2.09l5.76 -2.24c1.92,-0.77 3.84,-1.57 5.74,-2.4 1.91,-0.82 3.81,-1.67 5.7,-2.56 1.9,-0.87 3.79,-1.78 5.66,-2.71l45.77 -22.67c120.42,-59.65 170.14,-206.97 110.48,-327.38l-131.12 -264.71 -264.7 131.13c-120.33,59.61 -170.06,206.8 -110.58,327.17z"/>
  <path class="fil12" d="M5351.57 1275.64c-113.82,62.4 -159.58,205.29 -101.44,322.64l162.42 327.89 114.5 -335.27c42.95,-125.77 -24.8,-263.81 -150.57,-306.76l-24.91 -8.5z"/>
  <path class="fil13" d="M2599.28 2388.59l33.07 -116.07c68.46,33.06 107.76,109.91 90.45,187.3 -3.21,14.35 -8.17,27.85 -14.61,40.34l-55.64 -15.86c-40.97,-11.67 -64.95,-54.74 -53.27,-95.71z"/>
  <path class="fil14" d="M584.43 1956.21l-131.67 7.87c-54.88,3.29 -102.46,-38.92 -105.75,-93.81l-4.89 -81.65c28.01,-10.57 59.05,-14.27 90.73,-9.32 88.44,13.79 151.62,90.09 151.58,176.91z"/>
  <path class="fil15" d="M2423.83 530.72l-23.35 -91.91c-16.43,-64.63 23.02,-130.94 87.65,-147.35l95.09 -24.17 -111.23 193.31 -25.49 44.3c-0.38,0.65 -0.76,1.3 -1.15,1.94 -0.39,0.64 -0.79,1.27 -1.19,1.89 -0.4,0.63 -0.81,1.25 -1.23,1.86 -0.42,0.62 -0.84,1.22 -1.28,1.81l0 0.01c-0.43,0.6 -0.87,1.19 -1.31,1.77 -0.44,0.59 -0.89,1.16 -1.35,1.74 -0.46,0.57 -0.92,1.13 -1.39,1.69 -0.47,0.56 -0.95,1.11 -1.43,1.65 -0.48,0.54 -0.97,1.08 -1.46,1.61l0 0c-0.5,0.53 -0.99,1.05 -1.5,1.57 -0.5,0.51 -1.02,1.02 -1.53,1.52 -0.52,0.51 -1.04,1 -1.56,1.48 -0.53,0.49 -1.07,0.97 -1.61,1.44 -0.54,0.48 -1.07,0.94 -1.62,1.39 -0.55,0.46 -1.11,0.91 -1.66,1.36l-1.4 1.09z"/>
  <path class="fil16" d="M373 631.03l311.89 -18.67 -149.61 959.2c-9.81,62.9 -69.29,106.33 -132.18,96.52l-68.83 -10.74 -55.08 -920.56c-3.28,-54.88 38.93,-102.47 93.81,-105.75z"/>
 </g>
</svg>
