<?xml version="1.0" encoding="UTF-8"?>
<svg id="Layer_2" data-name="Layer 2" xmlns="http://www.w3.org/2000/svg" viewBox="0 0 115.94 115.92">
  <defs>
    <style>
      .cls-1 {
        fill: #609e9e;
      }

      .cls-1, .cls-2, .cls-3, .cls-4, .cls-5 {
        stroke-width: 0px;
      }

      .cls-2 {
        fill: #da999f;
      }

      .cls-3 {
        fill: #f2d7dc;
      }

      .cls-4 {
        fill: #e2b5c4;
      }

      .cls-5 {
        fill: #cdbcc2;
      }
    </style>
  </defs>
  <g id="Layer_5" data-name="Layer 5">
    <g>
      <path class="cls-3" d="M49.29,24.25l8.68,8.68-33.72,33.72c-2.72,2.72-7.18,2.72-9.9,0l-12.31-12.32c-2.72-2.72-2.72-7.17,0-9.9L44.43,2.04c2.72-2.72,7.18-2.72,9.9,0l3.64,3.64-8.68,8.67c-2.72,2.73-2.72,7.18,0,9.9Z"/>
      <path class="cls-4" d="M66.64,24.25l-8.67,8.68-8.68-8.68c-2.72-2.72-2.72-7.17,0-9.9l8.68-8.67,8.67,8.67c2.73,2.73,2.73,7.18,0,9.9Z"/>
      <path class="cls-2" d="M113.9,54.33l-12.32,12.32c-2.72,2.72-7.17,2.72-9.9,0l-33.71-33.72,8.67-8.68c2.73-2.72,2.73-7.17,0-9.9l-8.67-8.67,3.63-3.64c2.73-2.72,7.18-2.72,9.9,0l42.4,42.39c2.72,2.73,2.72,7.18,0,9.9Z"/>
      <path class="cls-1" d="M104.44,98.85v10.07c0,3.86-3.14,7-7,7H15.52c-3.86,0-7-3.14-7-7v-10.07c0-3.86,3.14-7,7-7h29.27c.93,2.08,2.24,3.96,3.84,5.56,3.39,3.39,8.07,5.48,13.24,5.48,7.6,0,14.15-4.53,17.08-11.04h18.49c3.86,0,7,3.14,7,7Z"/>
      <path class="cls-3" d="M80.59,84.17c0,2.74-.59,5.34-1.64,7.68h-34.16c-1.06-2.34-1.65-4.94-1.65-7.68,0-5.17,2.1-9.86,5.49-13.25,3.39-3.38,8.07-5.48,13.24-5.48s9.85,2.1,13.24,5.48c3.39,3.39,5.48,8.08,5.48,13.25Z"/>
      <path class="cls-5" d="M78.95,91.85c-2.93,6.51-9.48,11.04-17.08,11.04-5.17,0-9.85-2.09-13.24-5.48-1.6-1.6-2.91-3.48-3.84-5.56h34.16Z"/>
    </g>
  </g>
</svg>